<svg width="64" height="65" viewBox="0 0 64 65" fill="none" xmlns="http://www.w3.org/2000/svg">
<g clip-path="url(#clip0_4275_983)">
<path d="M27.0246 51.5437C26.995 51.7029 26.9178 51.8164 26.7955 51.8911C26.2154 52.0655 25.632 52.1864 25.0358 52.2491L24.7646 52.3453C24.7089 52.365 24.6811 52.3749 24.6598 52.359C24.641 52.35 24.6176 52.3504 24.5968 52.3578C24.2154 52.4305 23.839 52.517 23.4557 52.606C23.0793 52.6925 22.7228 52.725 22.3933 52.701C22.0329 52.7662 21.6809 52.7892 21.3162 52.7542C20.9515 52.7192 20.6473 52.6783 20.3918 52.6202L20.3005 52.6056L20.244 52.5787C20.244 52.5787 20.1953 52.5959 20.181 52.5775C20.1621 52.5685 20.1388 52.569 20.118 52.5764C19.7779 52.6109 19.4271 52.5709 19.068 52.4634C18.5489 52.4127 18.0252 52.2383 17.4779 51.9314C16.9331 51.6314 16.4246 51.2794 15.9644 50.8868C15.4548 50.5978 14.9567 50.297 14.4789 49.9654C14.0012 49.6338 13.5876 49.2403 13.2452 48.7824C13.1427 48.67 13.0615 48.5736 12.9828 48.4841C12.904 48.3946 12.8204 48.2911 12.7203 48.1857L12.3875 47.8653C12.3146 47.8364 12.265 47.807 12.2274 47.7891C12.1897 47.7711 12.1565 47.7437 12.1089 47.698L11.9856 47.3503C11.9684 47.3016 11.9486 47.246 11.9105 47.2047C11.8793 47.1609 11.8526 47.1078 11.8354 47.0591C11.7768 47.0485 11.6802 46.9967 11.5568 46.8917C11.5395 46.8431 11.5198 46.7874 11.4817 46.7461C11.4505 46.7024 11.4238 46.6492 11.4065 46.6006L11.2341 46.4895C11.0934 46.3358 11.0556 46.1849 11.1229 46.0436L11.0809 45.9253C10.978 45.7896 10.8804 45.6911 10.8046 45.6319L11.1938 45.3608C11.0371 45.0954 10.9178 44.7149 10.836 44.2194C10.7542 43.7239 10.6858 43.2002 10.6518 42.6407C10.6178 42.0813 10.6071 41.5214 10.6267 40.9586C10.6463 40.3958 10.6697 39.91 10.6989 39.4847L10.5681 39.3588C10.4787 38.9522 10.5516 38.4957 10.787 37.9895C11.0154 37.4857 11.2766 36.986 11.568 36.4833C11.8619 35.9876 12.1285 35.5251 12.3701 35.1028C12.6117 34.6805 12.7197 34.3447 12.6914 34.0885C12.7693 33.8887 12.8698 33.7747 13.0118 33.7557C12.7193 33.5932 12.3777 33.4247 11.9776 33.2457C11.5774 33.0666 11.1679 32.8831 10.7489 32.6951C10.3299 32.507 9.92931 32.3047 9.54711 32.0879C9.16492 31.8712 8.83835 31.6347 8.57684 31.383C7.58098 30.8046 6.84355 30.0719 6.35063 29.1899C5.78927 28.5122 5.37192 27.799 5.10554 27.048C5.08827 26.9993 5.07594 26.9646 5.09187 26.9433C5.10084 26.9244 5.09793 26.8941 5.0782 26.8385C5.05847 26.7829 5.03874 26.7272 4.99568 26.6721C4.95957 26.6144 4.93042 26.5543 4.91315 26.5056C4.85889 26.3526 4.87954 26.2122 4.98454 26.0889C4.94686 26.0709 4.91075 26.0133 4.87375 25.9089C4.79417 25.5301 4.71706 25.1582 4.64039 24.8096C4.56372 24.461 4.52137 24.0767 4.51829 23.6707L4.47636 23.5525C4.36855 22.9175 4.36124 22.1685 4.44749 21.3081C4.53373 20.4476 4.82408 19.7653 5.32099 19.2681L5.36504 18.6418C5.64983 17.5466 6.18198 16.8176 6.95455 16.4575C6.78543 16.4 6.71075 16.2778 6.71167 16.0817C6.71506 15.8926 6.82454 15.7599 7.03316 15.6859L8.27791 15.2444L8.34186 15.0494C8.48567 14.881 8.64427 14.7543 8.81521 14.6624C9.20713 14.2885 9.6421 13.9698 10.1177 13.6993C10.5932 13.4289 10.9988 13.1598 11.3414 12.8895C11.4179 12.8624 11.5181 12.8581 11.6397 12.8698C12.0298 12.6453 12.4204 12.4442 12.8302 12.2753C13.2376 12.0995 13.6418 12.0031 14.0404 11.9792C14.3742 11.8608 14.7199 11.7538 15.0705 11.6608C15.4141 11.5702 15.7737 11.4583 16.1353 11.3301C16.3154 11.3523 16.4666 11.4474 16.5864 11.6085C16.7104 11.6271 16.8082 11.6159 16.8847 11.5888L17.6218 11.3273C17.6705 11.3101 17.7311 11.3042 17.7896 11.3148C17.8481 11.3253 17.9136 11.3334 17.9697 11.337C18.1326 11.3106 18.3163 11.2767 18.5119 11.2543C18.7075 11.2319 18.8941 11.2284 19.0812 11.2481L19.2537 11.3592L20.4984 10.9177C20.707 10.8437 20.8687 10.8803 20.9975 11.0225C21.1193 11.1672 21.1408 11.3161 21.0457 11.4673C21.8794 11.2577 22.752 11.4884 23.6563 12.1619L24.0851 12.6204C24.7843 12.6934 25.4397 13.0403 26.0488 13.6541C26.658 14.2679 27.1267 14.861 27.4407 15.4151L27.4826 15.5333C27.743 15.848 27.9522 16.1731 28.1054 16.4945C28.2679 16.8205 28.433 17.1534 28.6169 17.4953C28.6539 17.5996 28.6622 17.6671 28.6442 17.7048C28.8035 17.7344 28.908 17.8304 28.9623 17.9834C28.982 18.039 29.0017 18.0947 29.0031 18.1646C29.0114 18.2322 29.0266 18.2972 29.0439 18.3459C29.0611 18.3946 29.0735 18.4293 29.0993 18.4359C29.1181 18.4448 29.1374 18.4771 29.1546 18.5258C29.421 19.2768 29.5463 20.0936 29.5374 20.9735C29.715 21.9596 29.5971 22.9957 29.1907 24.0793C29.1487 24.4465 29.0441 24.8358 28.8815 25.238C28.7213 25.6471 28.5377 26.0567 28.3309 26.4667C28.124 26.8767 27.9147 27.2798 27.7098 27.6734C27.498 28.0695 27.3459 28.4131 27.2489 28.7137C27.3712 28.639 27.521 28.6642 27.7074 28.7703C27.8469 28.987 28.1353 29.1822 28.5961 29.3554C29.0498 29.5311 29.5482 29.7223 30.0888 29.922C30.6293 30.1217 31.1495 30.3521 31.6443 30.5994C32.1391 30.8466 32.4833 31.1551 32.6771 31.5248L32.6549 31.7049C32.9361 32.0122 33.2698 32.3792 33.6397 32.8039C34.0095 33.2286 34.354 33.6701 34.6801 34.1259C34.9992 34.5842 35.2831 35.0315 35.5318 35.4678C35.7805 35.9042 35.9207 36.2772 35.9731 36.5796L36.4462 36.5449C36.4177 36.6411 36.4109 36.7766 36.4165 36.9468L36.4585 37.065C36.5998 37.1324 36.6655 37.2735 36.6531 37.4814L36.5891 37.6763C36.6089 37.7319 36.6261 37.7806 36.6225 37.8367C36.6284 37.8973 36.6387 37.9484 36.6559 37.9971C36.5985 38.1662 36.563 38.2649 36.5451 38.3026C36.5648 38.3582 36.5821 38.4069 36.5785 38.463C36.5843 38.5235 36.5946 38.5747 36.6119 38.6233L36.7352 38.971C36.7271 39.0365 36.6917 39.1352 36.6244 39.2765L36.5678 39.735C36.559 39.8869 36.5568 40.0129 36.552 40.132C36.5473 40.2511 36.5475 40.3842 36.5363 40.5291C36.5683 41.1049 36.4951 41.671 36.3236 42.225C36.1522 42.7791 35.9644 43.3311 35.7508 43.8766C35.6408 44.4714 35.4653 45.0582 35.2337 45.6414C35.0022 46.2245 34.6984 46.6924 34.3343 47.0564C34.1232 47.3662 33.8735 47.6113 33.5902 47.8057C33.5623 47.8156 33.5415 47.823 33.5419 47.8463C33.533 47.8652 33.5146 47.8795 33.4937 47.8869C33.4728 47.8943 33.4569 47.9156 33.4668 47.9434C33.439 47.9533 33.4161 47.9771 33.4051 48.0123C33.202 48.2565 32.9205 48.5443 32.5625 48.8592C32.2044 49.1741 31.8446 49.3956 31.483 49.5239L31.4413 49.5387C31.4406 49.6251 31.4116 49.6979 31.3426 49.7459C31.0179 49.9785 30.681 50.1763 30.3481 50.3414C30.0152 50.5064 29.6635 50.6625 29.3117 50.8186C29.1993 50.921 29.084 50.9933 28.9568 51.054C28.8297 51.1148 28.7119 51.1801 28.5872 51.2478C28.4144 51.2464 28.3048 51.2462 28.274 51.2258L27.3005 51.5711L27.0221 51.5367L27.0246 51.5437ZM11.8093 43.7411L11.489 43.5885C11.4224 43.6435 11.3132 43.6666 11.1613 43.6578L11.1761 43.6995C11.2248 43.6823 11.2575 43.6863 11.2674 43.7141L11.8638 44.0271L11.8093 43.7411ZM4.86645 25.16C4.91581 25.0563 4.96877 24.8966 5.02779 24.6878C5.08681 24.479 5.13843 24.2493 5.19656 23.9938L4.97472 23.9864C4.88945 24.1654 4.79052 24.2396 4.66895 24.2279L4.86891 25.1669L4.86645 25.16ZM12.6514 39.9351C12.5958 39.9549 12.5848 39.9901 12.6021 40.0388L11.2221 41.7104L11.2787 41.7373L11.3204 41.7225C11.2932 41.646 11.3565 41.5374 11.5077 41.3899C11.6614 41.2492 11.8384 41.1082 12.0362 40.9597C12.2366 40.8182 12.416 40.6841 12.5796 40.5713C12.7431 40.4585 12.8277 40.3658 12.8382 40.3073C12.8006 40.2893 12.7694 40.2456 12.7422 40.1691L12.6584 39.9327L12.6514 39.9351ZM7.5812 29.1057C7.52694 28.9527 7.47603 28.8533 7.42848 28.8076L7.19205 28.8914L7.40646 29.1207L7.53948 29.1205L7.5812 29.1057ZM14.2185 48.0614L14.4554 48.2436L14.241 48.0143L14.214 48.0708L14.2185 48.0614ZM11.4906 40.1277L11.7521 40.8648C11.7521 40.8648 11.8126 40.859 11.8433 40.8794C11.7891 40.7264 11.7348 40.5734 11.7064 40.4269C11.6709 40.2829 11.6375 40.1225 11.6041 39.9621C11.5312 39.9332 11.4906 39.885 11.4734 39.8363L11.4931 40.1346L11.4906 40.1277ZM8.18034 29.0733C8.20747 29.1498 8.24111 29.2005 8.27632 29.2114L8.33285 29.2384L7.1564 27.0252C7.17614 27.0808 7.23444 27.2011 7.33625 27.3998C7.43806 27.5986 7.54727 27.8182 7.67532 28.0468C7.80338 28.2753 7.91259 28.495 8.0144 28.6937C8.11621 28.8925 8.17698 29.0196 8.19424 29.0683L8.18034 29.0733ZM5.64453 22.0343L5.72825 21.6523C5.67262 21.6721 5.63292 21.6705 5.59523 21.6525L5.64207 22.0274L5.64453 22.0343ZM13.0145 42.0845C13.0417 42.161 13.0688 42.2375 13.1193 42.3135C13.1603 42.3851 13.1735 42.4665 13.1823 42.5574L13.2859 42.6067L13.2043 42.2442L13.017 42.0915L13.0145 42.0845ZM7.36583 25.894L7.55329 26.4225C7.61248 26.5894 7.70443 26.7603 7.81723 26.9239L7.87376 26.9508L8.03397 26.5417L7.87361 26.3324C7.72312 26.1509 7.71058 25.9831 7.84743 25.8171C7.97733 25.6536 8.16598 25.6337 8.41786 25.7479C8.408 25.7201 8.41697 25.7012 8.44479 25.6914C8.40711 25.6734 8.38087 25.6436 8.36113 25.588C8.21914 25.607 8.08568 25.5839 7.95828 25.5116C7.83088 25.4394 7.77707 25.3097 7.7993 25.1296C7.73199 25.2709 7.6667 25.3959 7.60343 25.5044C7.54016 25.613 7.46993 25.724 7.39522 25.8444L7.3683 25.901L7.36583 25.894ZM15.5794 48.3224L15.8923 48.2115L15.2194 47.9256L15.5794 48.3224ZM14.5777 45.6088C14.5777 45.6088 14.5629 45.5671 14.5421 45.5745C14.5282 45.5795 14.5163 45.568 14.5064 45.5402L14.5212 45.5819L14.5777 45.6088ZM13.6947 43.1193C13.7984 43.1687 13.8688 43.1907 13.8897 43.1833C13.7878 42.9845 13.6856 42.7625 13.5923 42.5215C13.4921 42.2831 13.3988 42.0422 13.3149 41.8057L13.2236 41.7911C13.2976 41.9998 13.3766 42.2223 13.4371 42.4592C13.507 42.7005 13.5974 42.9112 13.6923 43.1124L13.6947 43.1193ZM9.6498 30.7441L9.39113 31.0081L9.40593 31.0498C9.55892 30.9955 9.68543 31.0211 9.78792 31.1335C9.85455 31.0786 9.88394 31.029 9.86421 30.9734L9.66213 30.7789L9.64733 30.7372L9.6498 30.7441ZM5.46898 19.6853C5.64128 19.4207 5.78509 19.2522 5.90039 19.18L5.84387 19.1531C5.75929 19.2457 5.68369 19.3195 5.622 19.3884C5.5603 19.4572 5.49861 19.5261 5.43489 19.6113L5.46203 19.6878L5.46898 19.6853ZM14.3854 44.581C14.444 44.5916 14.5045 44.5858 14.5532 44.5685L14.4843 44.5068C14.4202 44.326 14.3496 44.171 14.2774 44.0557L14.1096 44.0682C14.1466 44.1725 14.1786 44.2629 14.2266 44.332C14.2677 44.4036 14.3206 44.4866 14.3785 44.5835L14.3854 44.581ZM15.2707 46.9445C15.2904 47.0001 15.3736 47.0802 15.5347 47.2031C15.5174 47.1545 15.5214 47.1217 15.5493 47.1118L15.2707 46.9445ZM7.49598 23.7889C7.49598 23.7889 7.43542 23.7947 7.40469 23.7743C7.34906 23.794 7.30552 23.9582 7.27161 24.2599L7.5377 23.7741L7.49598 23.7889ZM8.641 27.9L8.69036 27.7963L8.8158 27.3995L8.75928 27.3726L8.641 27.9ZM10.8209 32.4347C10.7191 32.2359 10.6557 31.9687 10.6212 31.6287L10.5029 31.6706L10.2936 31.831L10.814 32.4371L10.8209 32.4347ZM16.5008 46.5943L16.0079 46.1976C15.7999 46.1853 15.5821 46.1451 15.3545 46.0771L15.8871 46.718L16.4984 46.5873L16.5008 46.5943ZM6.64017 20.8905L6.63274 21.1123L6.6673 20.967L6.64017 20.8905ZM16.4543 48.8028L16.5109 48.8297L16.5726 48.7609L16.4543 48.8028ZM7.55284 22.978C7.74282 23.0281 7.86326 23.1028 7.90026 23.2071L8.30434 22.4923L8.55795 21.3532C8.34684 21.663 8.15367 21.9351 7.99236 22.1645C7.8241 22.3964 7.72493 22.5803 7.68544 22.7118C7.58044 22.8351 7.47209 22.9049 7.36487 22.9116L7.55979 22.9755L7.55284 22.978ZM9.8291 28.4023L9.65662 28.2913L9.46934 28.1385L9.38542 28.3875L9.8291 28.4023ZM16.2964 47.4966L16.2547 47.5114L16.4 47.546L16.2964 47.4966ZM14.863 42.705C14.8161 42.5728 14.8209 42.4537 14.8702 42.3501C14.7677 42.2377 14.7074 42.1339 14.6704 42.0295C14.6334 41.9252 14.5776 41.812 14.5053 41.6967C14.4497 41.7164 14.3634 41.7157 14.2418 41.704L14.8856 43.2763C14.9412 43.2566 14.976 43.2442 15.0112 43.2552C15.0464 43.2662 15.0812 43.2539 15.1368 43.2342L14.8679 42.7189L14.863 42.705ZM10.7319 30.7048C10.7319 30.7048 10.7687 30.6761 10.7588 30.6482C10.8162 30.4791 10.8717 30.3264 10.9201 30.1761C10.9686 30.0258 11.0404 29.8751 11.1355 29.7239C10.9547 29.788 10.7928 29.8612 10.6427 29.9457C10.4996 30.0278 10.352 30.1193 10.2187 30.2292L10.3912 30.3402L10.7388 30.7023L10.7319 30.7048ZM15.2405 44.1446C15.2775 44.2489 15.2769 44.3353 15.2479 44.4082C15.4565 44.3342 15.5907 44.271 15.6643 44.2136C15.6371 44.1371 15.6035 44.0864 15.5683 44.0754C15.4954 44.0464 15.4344 44.0289 15.3807 44.0323C15.3202 44.0381 15.2616 44.0275 15.1932 43.9892L15.2475 44.1422L15.2405 44.1446ZM13.4524 38.8603L13.8962 39.0082L13.9456 38.9046C13.853 38.82 13.805 38.7509 13.7853 38.6953C13.7496 38.4183 13.8001 38.2516 13.9601 38.1949C13.9502 38.1671 13.9453 38.1532 13.9661 38.1458C13.987 38.1384 13.982 38.1245 13.9722 38.0966L13.1266 37.5667L13.3683 38.4909L13.4499 38.8534L13.4524 38.8603ZM16.5476 47.4545C16.7062 47.5705 16.8107 47.6665 16.8656 47.7331L17.3585 47.5113L17.3437 47.4696C17.2782 47.4615 17.2291 47.4555 17.1775 47.4425C17.1259 47.4294 17.0768 47.4234 17.0113 47.4153C16.8311 47.3931 16.6703 47.4031 16.5382 47.45L16.5476 47.4545ZM6.52645 19.091C6.61213 19.1781 6.66707 19.2447 6.68681 19.3003C6.70654 19.356 6.72627 19.4116 6.72761 19.4816C6.7359 19.5491 6.7471 19.6469 6.76077 19.7517C6.8189 19.4962 6.90978 19.2447 7.04036 18.9949C7.17094 18.745 7.30354 18.4788 7.43816 18.1962L6.52645 19.091ZM11.7428 32.319C11.6379 32.4424 11.5136 32.5334 11.3536 32.5902L12.1105 32.6271C12.0376 32.5981 12.0178 32.5425 12.0562 32.4741L11.7359 32.3215L11.7428 32.319ZM17.8599 50.6686L17.8181 50.6834L17.9635 50.7179L17.8599 50.6686ZM13.0601 36.8935C13.1749 36.798 13.2792 36.761 13.373 36.7826L13.4147 36.7678L13.0325 36.551L13.067 36.8911L13.0601 36.8935ZM16.1159 44.891L16.0394 44.9182L16.296 45.3987C16.3545 45.4092 16.4151 45.4034 16.4638 45.3861L16.1184 44.898L16.1159 44.891ZM8.63478 23.9095L9.10554 24.4862C9.20316 24.0993 9.27386 23.7689 9.32212 23.4856C9.37039 23.2023 9.38926 22.9686 9.37134 22.7636C9.37203 22.6772 9.37271 22.5909 9.38484 22.4926C9.39943 22.4013 9.41895 22.3239 9.45485 22.2486C9.33328 22.2369 9.2476 22.1499 9.19087 21.9899L9.06543 22.3867C9.14011 22.509 9.13785 22.635 9.07054 22.7763L8.63681 23.8931L8.63478 23.9095ZM14.5074 39.8483L14.4603 39.3405L14.4038 39.3136L14.5074 39.8483ZM9.01698 24.1262L8.96046 24.0993L9.10834 23.6554L9.12313 23.6971L9.01003 24.1287L9.01698 24.1262ZM8.20303 21.8314L8.33611 21.3458C8.33611 21.3458 8.27555 21.3516 8.24482 21.3312L8.20303 21.8314ZM11.5032 31.1358L11.518 31.1775L11.6782 31.2538C11.7652 31.1681 11.8359 31.0804 11.8951 31.0046C11.9543 30.9288 12.0062 30.8321 12.0625 30.726L12.0477 30.6843L11.5057 31.1427L11.5032 31.1358ZM18.4728 47.6954C18.4912 47.9238 18.4452 48.081 18.3324 48.1602C18.215 48.2488 18.0751 48.2514 17.9084 48.2009C17.8528 48.2207 17.8041 48.2379 17.7628 48.2761C17.7121 48.3097 17.6659 48.3339 17.6172 48.3512C17.6758 48.3617 17.7204 48.3772 17.7417 48.3932C17.7655 48.416 17.7962 48.4365 17.8245 48.4499C18.0806 48.4217 18.3691 48.3742 18.6993 48.3119C19.032 48.2565 19.1782 48.095 19.1455 47.8483C19.1769 47.7823 19.2406 47.6971 19.3277 47.6114L18.8766 47.333C18.8273 47.4366 18.714 47.4925 18.5437 47.498L18.5585 47.5398L18.4672 47.5252L18.3908 47.5523C18.3908 47.5523 18.4596 47.614 18.4867 47.6905L18.4728 47.6954ZM18.8804 51.3165C19.2289 51.4825 19.5533 51.6024 19.8395 51.6809L18.6242 51.102C18.6514 51.1785 18.6621 51.253 18.6516 51.3115C18.7281 51.2844 18.8005 51.29 18.8734 51.319L18.8804 51.3165ZM15.7544 28.5319C15.9606 28.6936 16.2582 28.7603 16.6568 28.7363C17.0554 28.7124 17.4859 28.6458 17.9507 28.5436C18.4345 28.3407 18.819 28.1886 19.1041 28.0875L20.3489 27.646C20.6932 27.4691 21.0138 27.2692 21.3016 27.0654C21.5964 26.859 21.7671 26.6341 21.8252 26.3786L22.9664 25.4023C23.175 25.3283 23.4213 25.2723 23.7167 25.2223C24.0077 25.1817 24.2372 25.1004 24.3982 24.9806C24.2488 24.9788 24.1293 24.9507 24.0445 24.9103C23.9597 24.87 23.9265 24.8426 23.9543 24.8327C23.697 24.924 23.5133 24.9578 23.4196 24.9363C23.3924 24.8598 23.3644 24.7366 23.338 24.5738C23.3115 24.4109 23.2896 24.2387 23.2909 24.0659L23.5276 24.1151C23.5825 24.1817 23.7007 24.1398 23.8753 23.9918C23.8383 23.8875 23.825 23.806 23.8331 23.7405C23.7676 23.7325 23.7696 23.7161 23.8392 23.6914C23.9087 23.6668 23.9951 23.6674 24.1167 23.6791L25.4524 22.5008L25.1394 22.6118L23.2885 24.059L23.2491 23.4623C23.2826 22.8946 23.2032 22.406 23.0086 21.9897C22.8139 21.5734 22.6143 21.1431 22.3935 20.6969L22.206 20.4111C22.206 20.4111 22.1187 20.3638 22.0113 20.2375C21.9063 20.1181 21.8079 19.973 21.707 19.8209C21.606 19.6688 21.5051 19.5167 21.3952 19.3835C21.2853 19.2502 21.2185 19.1721 21.1808 19.1542C20.8802 19.0572 20.6831 18.8766 20.5779 18.6243C20.4728 18.3719 20.2875 18.2028 20.0222 18.1168C19.7685 18.152 19.4349 18.1607 19.0215 18.1429C18.6106 18.1321 18.2934 18.1428 18.0774 18.196L17.4933 18.4032L17.439 18.2502C17.2761 18.2766 17.1599 18.3022 17.0855 18.3129C17.018 18.3212 16.9574 18.3271 16.9177 18.3255C16.871 18.3264 16.8244 18.3273 16.7638 18.3331C16.7032 18.3389 16.6034 18.3665 16.4435 18.4232C16.0361 18.599 15.6287 18.7748 15.2333 18.9621C14.8308 19.1518 14.4235 19.3276 14.023 19.5009L14.065 19.6192L15.2061 19.1283C15.0345 19.3066 14.8431 19.4293 14.6345 19.5033C14.5789 19.523 14.5441 19.5353 14.5237 19.5661C14.5008 19.5898 14.4755 19.6066 14.4546 19.614C14.3496 19.7374 14.2265 19.7654 14.0921 19.6956L14.065 19.6192L13.4808 19.8263C13.2821 19.9281 13.0266 20.1127 12.7143 20.3801C12.4045 20.6543 12.14 20.8578 11.9209 20.9903C11.7665 21.2173 11.7292 21.4654 11.809 21.7345C11.8864 21.9968 11.8402 22.2637 11.6748 22.5259C11.6569 22.5636 11.6542 22.6663 11.6528 22.839C11.6514 23.0117 11.6689 23.1934 11.6864 23.3751C11.7038 23.5568 11.7188 23.7316 11.7125 23.8904C11.7087 24.0561 11.6986 24.138 11.6708 24.1479L11.7053 24.4879C11.8149 24.9736 11.9335 25.4404 12.0422 25.8794C12.1534 26.3253 12.3997 26.7547 12.7834 27.1744L13.1288 27.6625L10.7796 27.7051L10.4667 27.8161L12.2463 27.8894C12.3334 27.8038 12.4069 27.7463 12.4695 27.7241C12.5321 27.7019 12.544 27.7134 12.5052 27.7585C12.5527 27.8042 12.5938 27.8758 12.6308 27.9801C12.8387 27.9925 12.9569 27.9505 12.9785 27.8568L13.1313 27.6695C13.2342 27.8052 13.3326 27.9504 13.4147 28.0935C13.4968 28.2366 13.5526 28.3499 13.5798 28.4264C13.657 28.3129 13.7153 28.1904 13.7548 28.059L14.2184 28.5052L13.6069 28.5029L13.5798 28.4264C13.523 28.5091 13.3566 28.5917 13.0993 28.6829C13.1271 28.6731 13.1116 28.7177 13.0782 28.8C13.0378 28.8848 12.9626 28.9819 12.8478 29.0775C13.0483 29.069 13.2778 28.9876 13.5293 28.8357C13.7832 28.6909 14.0167 28.5767 14.2253 28.5027L15.7266 28.5417L15.7544 28.5319ZM17.1341 46.1504L17.5506 46.5742C17.5993 46.5569 17.6926 46.5552 17.8142 46.5668L17.6269 46.4141L17.3901 46.2319L17.1411 46.148L17.1341 46.1504ZM14.7956 38.0786L15.4414 37.8025L14.47 37.4034L14.406 38.0837L14.7956 38.0786ZM13.3086 34.8795C13.4986 34.9296 13.6561 35.1086 13.781 35.4166C13.9059 35.7246 14.0682 35.9175 14.2656 35.9884L13.6144 34.638L13.4962 34.6799C13.4406 34.6996 13.382 34.6891 13.3161 34.6577L13.3086 34.8795ZM15.5877 41.3049C15.5877 41.3049 15.6025 41.3466 15.6234 41.3392C15.6442 41.3318 15.6491 41.3458 15.659 41.3736L15.5752 41.1371C15.5671 41.2026 15.5704 41.2562 15.5877 41.3049ZM11.2632 26.2653C11.1508 26.3678 11.033 26.4331 10.9009 26.4799L10.5115 26.618C10.5868 26.6539 10.6433 26.6809 10.6999 26.7078C10.7564 26.7347 10.8129 26.7616 10.8883 26.7975L11.4035 26.5287C11.3585 26.4899 11.3125 26.4044 11.2656 26.2723L11.2632 26.2653ZM12.4401 31.6803L12.4966 31.7072C12.6126 31.5486 12.6848 31.4212 12.7133 31.325L12.4495 31.6848L12.4401 31.6803ZM13.5227 33.0108C13.5541 32.9449 13.5671 32.8933 13.5572 32.8655L13.1481 32.7053L13.1479 32.5722L13.1331 32.5305L12.9729 32.4542C12.937 32.5296 12.8958 32.5677 12.8471 32.585L13.1526 32.6958L13.1945 32.814L13.1723 32.9942L13.5271 33.0014L13.5227 33.0108ZM10.856 24.7422C10.856 24.7422 10.8977 24.7274 10.9051 24.7483C10.9125 24.7691 10.9264 24.7642 10.9543 24.7543L10.8998 24.4683L10.7345 24.0024C10.7433 23.8505 10.8016 23.7281 10.9095 23.635L10.9441 23.4897L10.254 24.2589C10.254 24.2589 10.241 24.3105 10.1923 24.3278C10.2022 24.3556 10.1867 24.4003 10.1578 24.4732L10.2048 24.981L10.8654 24.7467L10.856 24.7422ZM19.6521 50.9097C19.6521 50.9097 19.6103 50.9245 19.6029 50.9036C19.5955 50.8828 19.5816 50.8877 19.5538 50.8976L19.5686 50.9393L19.6599 50.9539L19.6451 50.9122L19.6521 50.9097ZM13.2511 32.3556C13.2338 32.3069 13.1674 32.2521 13.0638 32.2028L13.2659 32.3973L13.2511 32.3556ZM23.6383 33.4547L23.5201 33.4966L23.6114 33.5112C23.5064 33.6346 23.3624 33.67 23.1654 33.6224C22.7192 33.8433 22.3168 34.033 21.97 34.203C21.6232 34.373 21.2903 34.538 20.9901 34.7071C20.683 34.8787 20.3596 35.0482 20.0152 35.2251C19.6734 35.409 19.2685 35.5918 18.8124 35.7849C18.763 35.8885 18.7063 35.9712 18.6302 36.0217C18.4593 36.1137 18.2877 36.292 18.1154 36.5566C17.9431 36.8213 17.7831 37.1207 17.6191 37.4529C17.4575 37.792 17.3148 38.1401 17.1795 38.5091C17.0442 38.8781 16.9408 39.2044 16.8717 39.4951L16.8791 39.2733C16.7371 39.2923 16.5971 39.295 16.4403 39.2723C16.286 39.2566 16.1386 39.2384 15.9893 39.2366L15.9747 39.3279C16.116 39.3952 16.299 39.4477 16.5307 39.483C16.7624 39.5182 16.9295 39.592 17.0226 39.7L17.0991 39.6728L16.8622 39.4906L17.1408 39.658L17.0991 39.6728L16.986 40.1044C16.9853 40.1907 16.9637 40.2845 16.9168 40.3951C17.0007 40.6315 17.0092 40.832 16.9354 40.9991C16.864 41.1732 16.8636 41.3926 16.927 41.6597C16.9813 41.8127 16.9626 41.9368 16.885 42.0269C16.922 42.1312 16.9303 42.1987 16.9123 42.2364C16.9987 42.2371 17.0954 42.2889 17.1909 42.4038C17.3235 42.623 17.491 42.9628 17.689 43.4328C17.887 43.9027 18.1402 44.3296 18.451 44.7204C18.4788 44.7105 18.4997 44.7031 18.514 44.7215C18.5329 44.7305 18.5562 44.7301 18.5771 44.7227C19.0091 44.8591 19.4213 44.9399 19.8208 44.9626C20.2203 44.9853 20.638 45.1034 21.0718 45.3331L21.836 45.1482C21.7447 44.8909 21.8439 44.7069 22.129 44.6058C22.4518 44.5226 22.7775 44.4697 23.1086 44.4541C23.4397 44.4384 23.7802 44.4273 24.1301 44.4206C24.3011 44.3286 24.4372 44.249 24.5267 44.1703C24.6162 44.0916 24.7131 44.0337 24.8125 43.9828C24.9119 43.9319 25.0207 43.8855 25.1389 43.8436C25.2571 43.8016 25.422 43.7588 25.6405 43.7126C26.0979 43.3468 26.5407 43.0723 26.969 42.8891C27.1219 42.8349 27.2812 42.8645 27.4422 42.9874C27.5465 42.9504 27.6181 42.9094 27.6639 42.8619L27.7329 43.0566L28.2482 42.7877C28.4427 42.3429 28.6832 41.9836 28.9861 41.7118C29.2845 41.4494 29.5606 41.1244 29.8007 40.7417C29.8285 40.7319 29.8424 40.7269 29.8489 40.7011C29.8579 40.6823 29.8763 40.6679 29.8972 40.6605C29.8948 40.1682 29.8199 39.6702 29.6775 39.1805C29.5352 38.6908 29.4441 38.3239 29.4159 38.0677C29.4177 37.9183 29.4601 37.8171 29.5267 37.7622C29.4891 37.7442 29.453 37.6866 29.416 37.5823C29.2944 37.5706 29.2087 37.4836 29.152 37.3236C29.0329 37.0762 28.8943 36.9061 28.7292 36.816C28.5641 36.7258 28.4444 36.5647 28.363 36.3352C28.2594 36.2858 28.1766 36.2291 28.1261 36.153L27.7664 35.8892L27.7247 35.904L27.8355 35.5985L27.7664 35.8892L27.8429 35.8621C27.8447 35.7127 27.9304 35.557 28.0881 35.3837C28.2458 35.2103 28.3549 35.0542 28.4222 34.9129C28.3845 34.8949 28.3632 34.879 28.3533 34.8512C28.2409 34.9537 28.1355 35.0537 28.0256 35.1631C27.9156 35.2726 27.8077 35.3657 27.6855 35.4404L27.831 35.6079C27.5942 35.4258 27.3082 35.2375 26.9706 35.0363C26.6331 34.835 26.3029 34.6546 25.9638 34.4931C25.6341 34.336 25.3142 34.2068 25.0137 34.1098C24.7131 34.0129 24.4675 33.9826 24.2768 34.0189C23.9646 34.0435 23.815 33.9087 23.8256 33.6075L23.6035 33.467L23.6383 33.4547ZM11.8375 27.3768C11.8375 27.3768 11.8227 27.3351 11.7969 27.3286C11.778 27.3196 11.7637 27.3012 11.7563 27.2804L11.6798 27.3075L11.8399 27.3838L11.8375 27.3768ZM10.3257 23.0044L10.3527 22.9479L10.2961 22.9209L10.3233 22.9974L10.3257 23.0044ZM13.6901 32.2468C13.6901 32.2468 13.7228 32.2509 13.7518 32.178C13.7338 32.2157 13.7109 32.2394 13.6901 32.2468ZM14.6589 34.0953C14.586 34.0663 14.5319 34.0464 14.4853 34.0472C14.4386 34.0481 14.3895 34.0421 14.3264 34.0409L14.6321 34.2848C14.6321 34.2848 14.6288 34.2312 14.6467 34.1935C14.6647 34.1558 14.6712 34.13 14.6613 34.1022L14.6589 34.0953ZM16.5385 38.4233C16.5773 38.3783 16.6697 38.3298 16.7949 38.2854C16.8245 38.1262 16.9443 38.0445 17.1424 38.0291L17.2115 37.7384L17.0933 37.7803C16.8279 37.9371 16.5419 37.9915 16.2308 37.9531L16.0977 38.4388C16.1731 38.4747 16.243 38.4733 16.3195 38.4462C16.396 38.4191 16.4705 38.4083 16.529 38.4189L16.5385 38.4233ZM9.90612 20.8281L10.1551 20.912L10.2116 20.9389L10.3519 20.5839C10.2384 20.5067 10.1547 20.4033 10.1103 20.2781L9.91554 20.8326L9.90612 20.8281ZM10.752 22.5949C10.8563 22.5579 10.9279 22.5168 10.9736 22.4693C11.0014 22.4594 11.0055 22.4267 10.9882 22.378L10.7589 22.5924L10.752 22.5949ZM13.9285 30.8001C13.9285 30.8001 13.8679 30.8059 13.8372 30.7855C13.8193 30.8232 13.7988 30.8539 13.7804 30.8682C13.7576 30.892 13.7421 30.9367 13.7385 30.9927L13.933 30.7906L13.9285 30.8001ZM10.8841 19.1268C10.9342 18.9368 10.9826 18.7866 11.032 18.6829C10.9284 18.6336 10.8546 18.558 10.8176 18.4537C10.7817 18.529 10.7543 18.5622 10.7265 18.5721C10.4414 18.6732 10.1572 18.821 9.87137 19.0085L9.88617 19.0502C9.91758 18.9843 9.98712 18.9596 10.0809 18.9811C10.348 18.9177 10.615 18.9639 10.8796 19.1362L10.8841 19.1268ZM14.5327 31.6427L14.6314 31.4354C14.6314 31.4354 14.6509 31.358 14.6312 31.3024L14.4019 31.5168L14.5327 31.6427ZM13.6743 29.2227L13.6891 29.2644L13.8764 29.4172L13.9181 29.4024L13.6813 29.2202L13.6743 29.2227ZM15.1683 30.102C14.9407 30.034 14.7343 29.9819 14.5374 29.9343C14.3474 29.8843 14.1505 29.8367 13.9605 29.7866C13.9703 29.8145 13.9777 29.8353 13.9593 29.8497C13.9504 29.8685 13.9508 29.8918 13.9582 29.9127L15.341 30.346C15.341 30.346 15.3099 30.3023 15.2722 30.2843C15.2271 30.2455 15.1885 30.1809 15.1614 30.1044L15.1683 30.102ZM21.143 49.551C21.143 49.551 21.1603 49.5997 21.1419 49.6141C21.1235 49.6284 21.1333 49.6562 21.1407 49.6771L21.2442 49.5934L21.1405 49.5441L21.143 49.551ZM12.1369 20.6945C12.2239 20.6088 12.2807 20.526 12.3191 20.4576L11.2838 20.8718C11.4431 20.9014 11.5148 20.9934 11.513 21.1428L12.1463 20.699L12.1369 20.6945ZM17.3957 37.2425C17.4451 37.1388 17.4944 37.0352 17.5483 36.9222C17.5976 36.8185 17.6351 36.7035 17.6468 36.5819C17.5524 36.6467 17.3666 36.6969 17.0896 36.7326C17.2679 36.9042 17.3619 37.0587 17.3879 37.1983L17.4027 37.24L17.3957 37.2425ZM10.6696 17.7937C10.8109 17.861 10.8896 17.9505 10.8988 18.0647L10.9899 17.9463L11.2757 17.7588C11.2584 17.7101 11.2665 17.6446 11.2979 17.5787C11.3967 17.3714 11.518 17.2501 11.66 17.2311C11.6502 17.2032 11.6567 17.1775 11.6746 17.1398C11.5703 17.1768 11.5028 17.1851 11.4651 17.1671L11.4234 17.1819C11.2901 17.2918 11.1544 17.3947 11.0326 17.4928C10.9063 17.6002 10.7914 17.6957 10.6766 17.7913L10.6696 17.7937ZM21.596 48.4666L21.8744 48.5009L21.9089 48.3556L21.596 48.4666ZM21.813 48.2174C22.0406 48.2854 22.2355 48.3493 22.4022 48.3998L22.4639 48.331C22.4639 48.331 22.4491 48.2892 22.4233 48.2827C22.4045 48.2738 22.3901 48.2554 22.3827 48.2345C22.1846 48.25 22.0606 48.2313 22.0155 48.1925C21.8643 48.0974 21.806 47.9771 21.8357 47.8179L21.4535 47.6012C21.4732 47.6568 21.4725 47.7431 21.4608 47.8647L21.6481 48.0175C21.7338 48.1045 21.7887 48.1712 21.8085 48.2268L21.813 48.2174ZM16.3791 32.5222C16.3791 32.5222 16.3571 32.5926 16.3645 32.6135L16.441 32.5863L16.3721 32.5247L16.3791 32.5222ZM22.9026 48.5746C22.9026 48.5746 22.9562 48.5713 22.9939 48.5892L23.0926 48.382L23.0509 48.3968L22.7526 48.4165C22.7526 48.4165 22.7039 48.4337 22.6895 48.4153C22.6707 48.4064 22.6474 48.4068 22.6265 48.4142C22.7858 48.4438 22.8755 48.4981 22.9051 48.5816L22.9026 48.5746ZM18.6324 34.7918C18.6324 34.7918 18.6382 34.8524 18.7284 34.93L18.9231 34.8609L18.9083 34.8192L18.63 34.7849L18.6324 34.7918ZM18.9604 34.3702L18.8839 34.3973L18.9038 34.8286L18.9604 34.8556L19.6703 34.5176C19.4445 34.5429 19.2619 34.5138 19.1206 34.4464L18.9604 34.3702ZM24.8149 47.8963L24.8003 47.9876C24.8003 47.9876 24.7995 47.941 24.8273 47.9311C24.8551 47.9212 24.878 47.8975 24.889 47.8622L24.8125 47.8894L24.8149 47.8963ZM15.9423 18.8202C15.8201 18.8949 15.7068 18.9507 15.5886 18.9926L15.22 19.1234C15.22 19.1234 15.2638 19.0922 15.2817 19.0545L15.9423 18.8202ZM22.9307 32.6958L22.3674 32.8955C22.2214 32.9473 22.0893 32.9942 21.9645 33.0619C21.8373 33.1227 21.7102 33.1835 21.5691 33.2492C21.428 33.3149 21.2476 33.4023 21.0255 33.5046C21.4625 33.4122 21.748 33.3344 21.8871 33.2851C22.0262 33.2358 22.2786 33.1306 22.6303 32.9745C22.679 32.9573 22.7277 32.94 22.762 32.9043C22.7988 32.8756 22.838 32.8539 22.8937 32.8342L22.9702 32.807L22.9282 32.6888L22.9307 32.6958ZM20.2511 30.8357L20.2363 30.7939C20.2363 30.7939 20.1856 30.8276 20.1746 30.8628L20.1329 30.8776L20.2511 30.8357ZM25.3763 45.1529C25.4319 45.1331 25.4736 45.1183 25.508 45.0827C25.5448 45.054 25.584 45.0322 25.6396 45.0125L25.6248 44.9708C25.5484 44.9979 25.4678 45.0578 25.3808 45.1435L25.3763 45.1529ZM25.8351 45.9609C25.9116 45.9338 25.9693 45.8977 26.015 45.8501C25.9107 45.8871 25.8531 45.9232 25.8351 45.9609ZM16.2205 18.7215L16.5682 18.5982C16.6545 18.5989 16.6317 18.6227 16.5065 18.6671L16.2353 18.7632L16.2205 18.7215ZM17.5343 18.4747C17.467 18.616 17.3537 18.6719 17.2014 18.6398C17.1736 18.6496 17.1458 18.6595 17.1175 18.646C17.0848 18.642 17.0475 18.6474 16.9919 18.6671C16.7555 18.751 16.5365 18.7738 16.3118 18.7361L17.5072 18.3982L17.5343 18.4747ZM25.761 44.8912C25.761 44.8912 25.8523 44.9057 25.9288 44.8786L25.9705 44.8638C25.9705 44.8638 25.9189 44.8508 25.9017 44.8021C25.8837 44.8398 25.84 44.871 25.7635 44.8981L25.761 44.8912ZM21.2667 31.227C21.389 31.1523 21.5788 31.0693 21.8361 30.9781L21.863 30.9216C21.6741 31.0512 21.4794 31.1202 21.2789 31.1287C21.2609 31.1664 21.2569 31.1992 21.2643 31.22L21.2667 31.227ZM15.749 14.8099C15.7304 14.934 15.7367 15.0179 15.7564 15.0735L16.1113 15.0807L15.9731 14.6913L15.7515 14.8169L15.749 14.8099ZM16.7107 16.5278L16.5996 16.7003C16.5996 16.7003 16.6483 16.6831 16.6835 16.694C16.7162 16.6981 16.7465 16.6952 16.7674 16.6878L16.7131 16.5348L16.7107 16.5278ZM16.8909 17.1685L16.9181 17.245C16.9378 17.3006 16.9362 17.3403 16.9183 17.378C16.9281 17.4058 16.9126 17.4504 16.8837 17.5233L17.0784 17.4543L16.9674 17.1414L16.8909 17.1685ZM22.2131 30.8052L22.186 30.7287C22.1402 30.7762 22.0548 30.8222 21.9296 30.8666L21.9861 30.8935L22.2226 30.8097L22.2131 30.8052ZM29.0207 49.998L29.0772 50.0249L29.0624 49.9832L29.0207 49.998ZM22.2351 29.3882C22.2351 29.3882 22.2409 29.4488 22.2205 29.4795L22.7281 29.2995L22.9572 28.952C22.7961 29.0718 22.6362 29.1285 22.4913 29.1173L22.3383 29.1716L22.3531 29.2133L22.242 29.3858L22.2351 29.3882ZM28.6255 46.4117L28.6943 46.4734C28.743 46.4561 28.7847 46.4413 28.8051 46.4106C28.828 46.3868 28.8464 46.3725 28.8742 46.3626L29.0147 46.1405L28.8074 46.0418L28.6324 46.4092L28.6255 46.4117ZM19.0074 14.8364C18.8371 14.842 18.655 14.8361 18.4798 14.8278C18.3046 14.8195 18.1225 14.8136 17.9522 14.8192C17.9343 14.8569 17.8905 14.8881 17.814 14.9152L17.8288 14.9569L17.8977 15.0186C18.0199 14.9439 18.1837 14.9641 18.3979 15.0604C18.5565 15.1764 18.6668 15.333 18.7309 15.5138C19.1073 15.6699 19.4325 15.8364 19.6947 16.0018C19.7917 15.7012 19.9698 15.4971 20.2172 15.378C20.2764 15.3022 20.339 15.28 20.4119 15.309L20.3971 15.2672C20.0571 15.3017 19.7433 15.3661 19.4581 15.4672C19.2502 15.4548 19.097 15.3761 19.001 15.2379C18.905 15.0997 18.9048 14.9667 19.0168 14.8409L19.0074 14.8364ZM29.5248 45.482C29.5076 45.4334 29.5058 45.34 29.5175 45.2185L29.552 45.0731C29.552 45.0731 29.5043 45.137 29.4486 45.1568C29.393 45.1765 29.3652 45.1864 29.3587 45.2122C29.3497 45.231 29.3174 45.2503 29.2687 45.2676L29.1505 45.3095L28.8646 45.9824L29.1778 46.0044C29.2271 45.9008 29.2745 45.8135 29.3243 45.7332C29.3671 45.6554 29.4333 45.5771 29.5204 45.4915L29.5248 45.482ZM17.5625 12.374C17.486 12.4011 17.4254 12.4069 17.3947 12.3865C17.3101 12.4791 17.2549 12.5222 17.2271 12.5321L17.54 12.4211L17.5669 12.3645L17.5625 12.374ZM24.2321 31.3104L24.1139 31.3523C24.283 31.4097 24.482 31.4409 24.7177 31.4434L24.7446 31.3869L24.2296 31.3034L24.2321 31.3104ZM20.4603 17.9614C20.3578 17.849 20.3625 17.7299 20.4675 17.6066L19.4026 17.9373C19.4711 17.9757 19.5718 17.9947 19.6933 18.0064L20.4647 17.952L20.4603 17.9614ZM24.3401 30.0038C24.2377 29.8914 24.1672 29.8694 24.117 29.9264C24.0692 29.9903 23.9779 29.9757 23.8521 29.8637L23.7681 30.1127L23.8099 30.0979C23.942 30.0511 24.0611 30.0558 24.1647 30.1051L24.3446 29.9944L24.3401 30.0038ZM29.6558 45.7409L29.8503 45.5388L29.5374 45.6498L29.6558 45.7409ZM26.0271 34.1418C25.9524 34.0196 25.9349 33.8379 25.9653 33.5923C25.7277 33.7392 25.5494 33.8102 25.4376 33.8264C25.5303 33.911 25.6249 33.9792 25.7285 34.0285C25.8322 34.0779 25.9358 34.1272 26.0488 34.1811L26.034 34.1394L26.0271 34.1418ZM23.3583 27.1031C23.3583 27.1031 23.4119 27.0997 23.4496 27.1177L23.5061 27.1446L23.5209 27.1863L24.0925 26.326C24.0925 26.326 24.0777 26.2842 24.0519 26.2777C24.0331 26.2688 24.0188 26.2504 24.0114 26.2295L23.3632 27.117L23.3583 27.1031ZM23.0522 24.7613C23.1657 24.8384 23.2881 24.8968 23.4196 24.9363L23.4467 25.0128L22.9734 25.3999L23.0522 24.7613ZM27.4422 34.5559C27.481 34.5108 27.5456 34.4722 27.6221 34.4451C27.6986 34.4179 27.7583 34.3655 27.7897 34.2995L27.3804 34.0063C27.1421 34.2395 26.8833 34.3705 26.6017 34.4156L26.4835 34.4575L26.7204 34.6397C26.8839 34.5269 27.0284 34.5148 27.1517 34.6198C27.2838 34.5729 27.3792 34.5547 27.4377 34.5653L27.4422 34.5559ZM30.8785 46.0979L30.8291 46.2016L30.9621 46.2014C30.9621 46.2014 30.9449 46.1527 30.9215 46.1531C30.9027 46.1441 30.8883 46.1257 30.8809 46.1049L30.8785 46.0979ZM24.4407 27.8152C24.4604 27.8708 24.4867 27.9007 24.5244 27.9186L24.7316 28.0173L24.7538 27.8372L24.4407 27.8152ZM23.8414 25.8827L23.8905 25.6461L23.8757 25.6043L23.8066 25.895L23.8483 25.8802L23.8414 25.8827ZM21.0071 16.4131C21.054 16.5452 21.0542 16.6782 21.0122 16.8027L21.3448 16.9901L21.3718 16.9335L21.5122 16.7115L21.0116 16.4037L21.0071 16.4131ZM21.6555 18.5944C21.6753 18.65 21.6966 18.6659 21.7244 18.6561C21.7899 18.6641 21.8713 18.6509 21.9756 18.6139L21.6625 18.5919L21.6555 18.5944ZM24.9507 27.0237C24.9056 26.9849 24.8654 26.96 24.8396 26.9535C24.8069 26.9494 24.7717 26.9384 24.7434 26.925L24.6817 26.9938L24.9601 27.0282L24.9507 27.0237ZM20.1553 11.8927L19.8076 12.016C19.7033 12.053 19.5802 12.081 19.4451 12.0976C19.5135 12.136 19.5905 12.1322 19.667 12.1051L19.953 12.0506L20.1623 11.8902L20.1553 11.8927ZM23.9016 20.115L23.6181 19.691C23.5452 19.6621 23.5095 19.6278 23.4997 19.6C23.444 19.6197 23.4182 19.6132 23.4084 19.5854L22.3878 19.4228L22.5062 19.5139C22.6581 19.5227 22.7805 19.581 22.8736 19.6889L23.0389 20.1548L23.1768 20.4112C23.1768 20.4112 23.2185 20.3965 23.2111 20.3756C23.2037 20.3547 23.2176 20.3498 23.2454 20.3399L23.906 20.1056L23.9016 20.115ZM26.1815 30.0083C26.1815 30.0083 26.2151 30.059 26.2504 30.07C26.288 30.0879 26.3118 30.1108 26.3192 30.1317L26.4029 29.7497C26.3572 29.7972 26.3228 29.8329 26.2836 29.8546C26.2468 29.8833 26.2174 29.9329 26.179 30.0013L26.1815 30.0083ZM31.7896 42.9721C31.7624 42.8956 31.7566 42.835 31.777 42.8043L31.7005 42.8314C31.7005 42.8314 31.6498 42.8651 31.6389 42.9003L31.6241 42.8586C31.4908 42.9684 31.3677 42.9965 31.2616 42.9402L31.0868 43.4406C31.2108 43.4592 31.3046 43.4807 31.3775 43.5097C31.51 43.7289 31.7298 43.7527 32.0161 43.5885C32.3117 43.4288 32.5632 43.277 32.7824 43.1445C32.8003 43.1068 32.8068 43.081 32.8109 43.0483C32.8149 43.0155 32.8353 42.9848 32.8811 42.9372C32.8254 42.957 32.7768 42.9742 32.7207 42.9706C32.6601 42.9765 32.609 42.9868 32.5603 43.004C32.4652 43.1552 32.3523 43.2344 32.2054 43.2395C32.0585 43.2446 31.9262 43.1585 31.8035 42.9671L31.7896 42.9721ZM25.7621 27.965L25.6708 27.9504C25.7183 27.9962 25.7417 27.9957 25.7621 27.965ZM22.5306 18.5893C22.5306 18.5893 22.4888 18.6041 22.4962 18.625C22.5012 18.6389 22.4897 18.6508 22.4619 18.6606C22.4897 18.6508 22.5155 18.6573 22.5532 18.6752L22.5261 18.5987L22.5306 18.5893ZM24.2152 22.8534L24.1387 22.8806C24.1387 22.8806 24.156 22.9293 24.1376 22.9436C24.1286 22.9624 24.1291 22.9858 24.1365 23.0066L24.2128 22.8465L24.2152 22.8534ZM28.4126 32.458L27.9098 33.3801L28.5852 33.1875L28.891 32.946L28.4126 32.458ZM23.8845 21.7886C23.9314 21.9207 23.9495 22.0161 23.939 22.0746L24.5085 21.9587C24.5399 21.8928 24.5714 21.8268 24.5983 21.7703C24.6252 21.7138 24.6521 21.6573 24.688 21.5819L24.2986 21.72C24.1665 21.7669 24.0314 21.7835 23.8821 21.7816L23.8845 21.7886ZM26.6445 28.2235L26.5137 28.0977L26.4718 27.9794L26.6392 27.7009C26.5835 27.7206 26.525 27.71 26.4591 27.6786L26.3828 27.8388L26.3976 27.8805L26.4812 27.9839L26.2645 28.3661C26.2645 28.3661 26.3145 28.4188 26.3829 28.4572L26.6539 28.228L26.6445 28.2235ZM26.1932 27.8121L26.2276 27.5337C26.1782 27.6373 26.1612 27.7217 26.1784 27.7703L26.1932 27.8121ZM25.9466 26.6313C26.0294 26.688 26.1588 26.7439 26.3558 26.7915L26.3827 26.735L25.9511 26.6218L25.9466 26.6313ZM32.9071 46.2552L32.9688 46.1864L32.954 46.1446C32.954 46.1446 32.9123 46.1594 32.9197 46.1803C32.9271 46.2012 32.9132 46.2061 32.8854 46.216L32.9002 46.2577L32.9071 46.2552ZM23.4005 17.7092C23.2314 17.6518 23.1547 17.5459 23.159 17.4035L22.8116 17.1744C22.8658 17.3274 22.8472 17.4514 22.7696 17.5416C22.838 17.58 22.9089 17.6253 22.9777 17.687C23.0466 17.7487 23.1015 17.8153 23.1589 17.8889C23.2717 18.0524 23.4431 18.2265 23.6521 18.4185C23.8612 18.6106 24.1312 18.8201 24.4508 19.0591L24.4529 18.3146L23.4124 17.7207L23.4005 17.7092ZM27.5716 29.6013C27.5357 29.6767 27.4944 29.7148 27.4457 29.7321L27.3275 29.774L27.6728 31.233C27.7789 31.0466 27.7859 30.8014 27.6888 30.4836C27.5917 30.1657 27.6012 29.9275 27.7172 29.7689L27.5716 29.6013ZM33.7548 46.0407C33.7862 45.9747 33.8459 45.9222 33.9224 45.8951C33.8748 45.8493 33.8387 45.7917 33.8116 45.7152L33.2327 46.9304C33.4149 46.6936 33.5843 46.3986 33.7479 46.0431L33.7548 46.0407ZM31.639 41.4441L31.5899 41.6807C31.6769 41.595 31.7436 41.5401 31.7992 41.5203L31.8556 40.9288L31.7151 41.1509L31.646 41.4416L31.639 41.4441ZM26.0721 25.7491C26.1758 25.7984 26.2769 25.8408 26.3776 25.8599C26.4739 25.8884 26.5815 25.905 26.7031 25.9167L26.7794 25.7566L26.7646 25.7148L26.0549 25.7004L26.0697 25.7421L26.0721 25.7491ZM21.7702 13.1127C22.0528 13.2473 22.3235 13.3705 22.5824 13.4823C22.8412 13.594 23.0702 13.732 23.2763 13.8937C23.2115 13.7993 23.161 13.7232 23.1319 13.6631C23.0958 13.6055 23.0666 13.5453 23.0494 13.4967C23.0321 13.448 23.0303 13.3547 23.042 13.2331L21.7702 13.1127ZM24.8053 16.7256C24.7109 16.7904 24.5828 16.8045 24.4305 16.7724C24.317 16.6953 24.1171 16.6174 23.8473 16.5409C23.5705 16.4668 23.256 16.3748 22.8969 16.2673L23.8116 16.992L24.5758 17.2924C24.5388 17.1881 24.5783 17.0567 24.7012 16.8956L24.8122 16.7231L24.8053 16.7256ZM29.9962 36.1943C29.9789 36.1457 29.9453 36.095 29.9002 36.0561L29.9841 36.2926C29.9841 36.2926 29.9807 36.239 29.9987 36.2013L29.9962 36.1943ZM23.1192 16.0554C23.1192 16.0554 23.0784 16.1168 23.0576 16.1242L23.4669 16.4175L23.1192 16.0554ZM24.2808 18.7122L23.9211 18.4484L23.9063 18.4067L24.3008 18.6582L24.2739 18.7147L24.2808 18.7122ZM27.1957 24.2154C27.0254 24.221 26.8507 24.236 26.6878 24.2624C26.525 24.2889 26.3462 24.3366 26.1654 24.4008C26.3345 24.4582 26.4783 24.5325 26.6176 24.6162C26.7499 24.7023 26.8917 24.7929 27.0404 24.8811L27.0969 24.908L27.1387 24.4078L27.2026 24.2129L27.1957 24.2154ZM27.174 27.1119C27.2424 27.1503 27.2597 27.1989 27.2283 27.2649L27.7927 26.7594C27.6119 26.8235 27.4511 26.8336 27.3196 26.7941L27.167 27.1144L27.174 27.1119ZM33.1327 41.5719C33.0006 41.6187 32.8763 41.7098 32.7435 41.843C32.6977 41.8906 32.6659 41.9332 32.6315 41.9688C32.5997 42.0115 32.5678 42.0541 32.5196 42.0947C32.5295 42.1225 32.5205 42.1413 32.4927 42.1512L33.0499 42.0005C33.0506 41.9142 33.0712 41.7738 33.1213 41.5838L33.1327 41.5719ZM29.6407 33.9561L29.9242 34.3801L29.6677 33.8996L29.6407 33.9561ZM29.5612 31.7453L29.2385 32.6896C29.2385 32.6896 29.2533 32.7313 29.2742 32.7239C29.295 32.7165 29.3 32.7305 29.3098 32.7583C29.4628 32.704 29.614 32.7991 29.7609 33.0367C29.7806 33.0923 29.7799 33.1787 29.7682 33.3003L29.8719 33.3496L30.1234 32.9551L29.9583 32.6222L29.5636 31.7523L29.5612 31.7453ZM28.8316 31.2995L28.8733 31.2847C28.9325 31.2089 29.0368 31.1719 29.1862 31.1737L28.9987 30.8879L28.8385 31.2971L28.8316 31.2995ZM31.8851 39.9085C31.9338 39.8912 31.9845 39.8576 32.0233 39.8125L31.9197 39.2777L31.8432 39.3048L31.8826 39.9015L31.8851 39.9085ZM32.0078 38.0252C31.9719 38.1005 31.9331 38.1456 31.8893 38.1768C31.8386 38.2104 31.8023 38.2625 31.7709 38.3284C31.7529 38.3661 31.7563 38.4197 31.7834 38.4962C31.8698 38.4969 32.0208 38.459 32.2294 38.385C32.1565 38.3561 32.106 38.28 32.069 38.1757L32.0148 38.0227L32.0078 38.0252ZM33.1913 39.7505C33.0573 39.9468 32.9135 40.1152 32.7598 40.2558L32.627 40.8744L33.184 40.5908L33.1937 39.7575L33.1913 39.7505ZM34.1737 44.8822L34.132 44.897L34.0827 45.0006L34.1737 44.8822ZM31.564 37.3919C31.6127 37.3746 31.6544 37.3598 31.6748 37.3291C31.6977 37.3053 31.73 37.286 31.7856 37.2663L31.2948 35.6398C31.2102 35.7324 31.1411 35.7804 31.0855 35.8001C31.1046 35.9421 31.1301 36.0583 31.1671 36.1626C31.2041 36.2669 31.2182 36.395 31.2139 36.5375C31.3176 36.5868 31.3963 36.6763 31.4431 36.8085L31.559 37.378L31.564 37.3919ZM26.4483 22.1084L26.3992 22.345L26.3352 22.5399L26.6704 22.2488L26.4483 22.1084ZM33.3891 41.434L33.3474 41.4488L33.298 41.5524L33.3891 41.434ZM27.8714 25.5023L27.7531 25.5443C27.9406 25.8301 28.0597 26.0775 28.1059 26.296L28.128 25.4974L27.8644 25.5048L27.8714 25.5023ZM26.6298 19.0221C26.4983 18.9826 26.3738 18.9406 26.2538 18.8893C26.1363 18.8448 26.0069 18.789 25.8656 18.7217C25.9963 18.8475 26.0362 18.9821 25.9828 19.1185C25.9294 19.2548 25.8404 19.3569 25.7181 19.4316C25.7378 19.4872 25.7363 19.5269 25.7183 19.5646C25.7461 19.5547 25.765 19.5637 25.7748 19.5915C25.8915 19.3466 26.0506 19.2432 26.2614 19.2858C26.4653 19.331 26.5682 19.4667 26.5657 19.7024L26.5731 19.966L26.9553 20.1827L26.9822 20.1262C26.9668 19.9281 26.9329 19.7444 26.8713 19.5706L26.6838 19.0421L26.6273 19.0151L26.6298 19.0221ZM34.0278 42.6166L34.0547 42.5601L33.9365 42.602L34.0278 42.6166ZM24.2331 14.8696L24.0875 14.702L24.1147 14.7785L24.2331 14.8696ZM24.2105 12.9517C24.1167 12.9302 24.0229 12.9087 23.9247 12.8965C23.8334 12.8819 23.7282 12.8723 23.6042 12.8536L23.5772 12.9102C23.7192 12.8911 23.937 12.9313 24.2306 13.0307L24.2035 12.9542L24.2105 12.9517ZM25.7298 17.7208C25.5064 17.5103 25.3691 17.4103 25.3204 17.4275L25.2588 17.4964L25.217 17.5112L25.7298 17.7208ZM26.5196 21.0732C26.5196 21.0732 26.5205 21.1198 26.4927 21.1297L26.8401 21.3588L26.9437 21.4081L26.5196 21.0732ZM27.9374 24.5629C27.9572 24.6186 28.0112 24.6385 28.0976 24.6392C28.0994 24.4898 28.1815 24.3903 28.3414 24.3335L28.3266 24.2918L27.9595 24.2498L27.9743 24.2915L27.9399 24.5699L27.9374 24.5629ZM33.6896 40.6698C33.6896 40.6698 33.7411 40.6828 33.7584 40.7315C33.8085 40.5415 33.8201 40.4199 33.8004 40.3643L33.6896 40.6698ZM34.1185 41.7468L34.4314 41.6358L34.4609 41.1008L34.1185 41.7468ZM33.0011 37.9782C32.9919 37.864 32.9807 37.7662 32.9605 37.6873C32.9473 37.6058 32.9222 37.513 32.8852 37.4087L32.747 37.5047C32.766 37.6466 32.8064 37.8046 32.8705 37.9854C32.8526 38.023 32.8485 38.0558 32.8559 38.0767C32.9046 38.0594 32.9553 38.0258 32.9941 37.9807L33.0011 37.9782ZM32.6163 36.408C32.5702 36.1895 32.4982 35.9645 32.4029 35.74C32.3076 35.5154 32.2217 35.2954 32.1477 35.0867L32.086 35.1556C32.1699 35.392 32.2537 35.6285 32.3217 35.8862C32.3941 36.1345 32.4546 36.3714 32.5078 36.5874C32.5356 36.5776 32.5694 36.5186 32.6188 36.4149L32.6163 36.408ZM31.5039 33.5145C31.531 33.591 31.5369 33.6515 31.5165 33.6823C31.564 33.728 31.6856 33.7397 31.8836 33.7243C32.0842 33.7158 32.3056 33.6999 32.5503 33.6835C32.795 33.6672 33.0238 33.6721 33.2317 33.6845C33.4397 33.6969 33.5572 33.7413 33.5868 33.8247L33.6285 33.8099L33.6555 33.7534L31.5306 33.3249C31.5134 33.2763 31.4757 33.2583 31.427 33.2756L31.5109 33.512L31.5039 33.5145ZM33.5139 38.8062C33.5139 38.8062 33.5287 38.8479 33.5079 38.8553C33.487 38.8627 33.4919 38.8766 33.5018 38.9044L33.5287 38.8479L33.5139 38.8062ZM32.4433 35.4125L32.6083 35.7454L32.6577 35.6418C32.6028 35.5751 32.5687 35.5011 32.553 35.4127C32.5398 35.3313 32.5196 35.2523 32.49 35.1689L32.4408 35.4055L32.4433 35.4125ZM25.3816 14.6423C25.3816 14.6423 25.3338 14.7062 25.2782 14.7259L25.5839 14.9698L25.3841 14.6492L25.3816 14.6423ZM28.0407 22.0289C28.0235 21.9803 27.9905 21.8432 27.9443 21.6247C27.8981 21.4062 27.847 21.1738 27.8 20.9087C27.7554 20.6505 27.7018 20.4112 27.6556 20.1927C27.6094 19.9742 27.5789 19.8441 27.5592 19.7885L28.0402 22.2483L28.0672 22.1918C28.0672 22.1918 28.0818 22.1005 28.0546 22.024L28.0407 22.0289ZM32.2701 32.452C32.2898 32.5077 32.2793 32.5662 32.2478 32.6321C32.3299 32.7753 32.3981 32.9233 32.4613 33.0575C32.527 33.1986 32.5858 33.3421 32.64 33.4951C32.658 33.4574 32.6739 33.4361 32.7017 33.4263L32.4403 32.6891L32.2676 32.4451L32.2701 32.452ZM35.2545 40.8663L35.3237 40.5756L35.2671 40.5486L35.2451 40.8618L35.2545 40.8663ZM28.5681 21.6618L28.6715 21.5781L28.6936 21.265L28.4571 21.3489C28.449 21.4144 28.4697 21.5167 28.5264 21.6766L28.5681 21.6618ZM27.7187 16.0445C27.6063 16.147 27.4733 16.1472 27.3291 16.0496L27.1615 16.1952C27.3676 16.357 27.5524 16.5028 27.7299 16.6277C27.9073 16.7527 28.049 16.8433 28.1526 16.8927L27.7162 16.0376L27.7187 16.0445ZM34.869 35.3428C34.869 35.3428 34.882 35.2912 34.9307 35.274L34.9159 35.2322C34.7826 35.3421 34.6808 35.3861 34.6178 35.3849L34.4652 35.7052L34.6031 35.9616L34.869 35.3428Z" fill="black"/>
<path d="M56.3586 40.1762C56.1273 40.407 56.0194 40.5 56.0398 40.4693C56.0578 40.4316 56.1583 40.3177 56.3413 40.1275L56.3068 40.0301C56.0062 40.1759 55.8597 40.2044 55.8723 40.1295C55.8849 40.0545 55.9804 39.9267 56.1754 39.7479L55.5957 38.3565C55.5957 38.3565 55.5679 38.3663 55.556 38.3549C55.5466 38.3504 55.5302 38.3484 55.5163 38.3533L55.3696 38.4915C55.3696 38.4915 55.373 38.5451 55.3382 38.5574C55.1417 38.7759 54.9779 38.9984 54.8588 39.2363C54.7396 39.4743 54.5803 39.6874 54.3789 39.8919C54.3268 40.0983 54.1908 40.3109 53.971 40.5298C53.9743 40.5834 53.9479 40.6633 53.894 40.7763C53.7305 40.8891 53.5064 41.0078 53.2242 41.1392C52.942 41.2706 52.6385 41.3861 52.3161 41.4926C51.9938 41.5991 51.664 41.6847 51.3363 41.754C51.0086 41.8233 50.7127 41.8499 50.4696 41.8265L50.3895 41.9098C50.1338 41.9613 49.8846 41.9871 49.6369 41.9731C49.3962 41.9567 49.1625 41.9379 48.9541 41.9022C48.7388 41.8689 48.5398 41.8377 48.3573 41.8086C48.1747 41.7794 48.002 41.778 47.8436 41.795C47.7429 41.776 47.672 41.7306 47.6334 41.666C47.5949 41.6014 47.5796 41.5364 47.5971 41.4754L46.9789 41.3658C46.9789 41.3658 46.9053 41.4232 46.8428 41.4454C46.5788 41.4295 46.2668 41.3444 45.9023 41.1997C45.791 41.2391 45.7051 41.2618 45.649 41.2582C45.512 41.2912 45.4133 41.2557 45.344 41.1707C45.2747 41.0857 45.2729 40.9923 45.3341 40.9002C45.2112 40.8185 45.0953 40.7344 44.9748 40.6597C44.8544 40.5849 44.7359 40.4939 44.6056 40.3913C44.5659 40.3898 44.5377 40.3763 44.5258 40.3648C44.5139 40.3534 44.4926 40.3375 44.4738 40.3285C44.3748 40.4027 44.2721 40.4 44.168 40.3273C44.0103 40.258 43.8726 40.1346 43.7414 39.9854C43.7067 39.9978 43.6878 39.9888 43.6755 39.954C43.5559 39.926 43.4891 39.8479 43.4819 39.7174C43.3344 39.5662 43.1933 39.3892 43.0563 39.1794C42.9192 38.9697 42.7822 38.7599 42.6521 38.5477C42.6333 38.5387 42.605 38.5253 42.5862 38.5163C42.5674 38.5073 42.5366 38.4869 42.5104 38.4571C42.0787 37.9682 41.8188 37.4341 41.7352 36.8453C41.6446 36.2589 41.6593 35.6822 41.7697 35.1107C41.6567 35.0569 41.5903 35.0021 41.5656 34.9326C41.4826 34.7428 41.4584 34.4539 41.498 34.0798C41.535 33.6987 41.6232 33.3072 41.7532 32.901C41.8831 32.4948 42.0512 32.1299 42.2549 31.7993C42.4586 31.4687 42.6834 31.2637 42.9268 31.1774L43.0488 30.9697C43.0488 30.9697 43.0389 30.9419 43.0528 30.9369C43.0598 30.9345 43.0643 30.925 43.0569 30.9042C43.1462 30.6924 43.2498 30.4991 43.3748 30.3217C43.3436 30.2779 43.3353 30.2104 43.3544 30.1097C43.6753 29.5575 44.0997 29.0547 44.6372 28.6057L44.8535 28.2001C45.0014 27.9989 45.1409 27.9729 45.2602 28.1107C45.7836 27.7763 46.3823 27.4778 47.0584 27.1989C47.0932 27.1865 47.1468 27.1832 47.2217 27.1958C47.4601 27.0955 47.7035 27.0092 47.9568 26.9507C48.21 26.8922 48.4429 26.8644 48.6463 26.8862C48.9433 26.7965 49.2661 26.7133 49.6147 26.6366C49.9633 26.56 50.3078 26.5161 50.6414 26.5073C50.9749 26.4986 51.293 26.5346 51.5911 26.6246C51.8892 26.7146 52.1395 26.8685 52.349 27.0838C52.3613 27.1186 52.3687 27.1395 52.39 27.1554C52.4019 27.1668 52.4048 27.1971 52.4032 27.2368L52.5068 27.2862C52.2902 26.9403 52.1276 26.6143 52.0166 26.3014L51.9994 26.2527C51.9177 26.1329 51.9483 26.0203 52.077 25.9198C52.0822 25.8241 52.1226 25.7393 52.2027 25.6561L52.2305 25.6462C52.2271 25.5926 52.27 25.5148 52.3427 25.4107C52.6747 25.199 53.0329 25.0171 53.4125 24.8512C53.792 24.6852 54.177 24.5565 54.5648 24.4581C54.5478 24.2998 54.609 24.2076 54.753 24.1721C54.897 24.1367 55.0031 24.193 55.0688 24.3341C55.2792 24.3535 55.34 24.4807 55.2556 24.7063L55.2242 24.7722L55.6583 25.9961C55.6583 25.9961 55.6781 26.0518 55.6716 26.0776C55.6695 26.0939 55.6725 26.1242 55.6848 26.159C55.8115 26.3176 55.9366 26.5159 56.0463 26.7588C56.1629 26.9993 56.2681 27.2517 56.3827 27.5085C56.4784 27.5137 56.5424 27.5615 56.5769 27.6588C56.6114 27.7562 56.5968 27.8475 56.5307 27.9258C56.8424 28.6059 57.1144 29.2845 57.3467 29.9615C57.579 30.6385 57.8301 31.3244 58.114 32.0144C58.1658 32.1605 58.1213 32.278 57.9876 32.3646C58.0188 32.4083 58.0316 32.4664 58.0215 32.5483C58.0058 32.7026 58.0109 32.8495 58.0344 32.9821C58.1818 33.243 58.3172 33.4924 58.4408 33.7305C58.5644 33.9685 58.6789 34.2253 58.7985 34.4961C58.8956 34.5712 59.005 34.6812 59.1104 34.8238C59.1499 34.9351 59.1378 35.0333 59.0716 35.1116L59.6069 36.3779C59.6069 36.3779 59.6266 36.4335 59.6201 36.4593C59.6181 36.4757 59.6185 36.499 59.6234 36.5129C59.6842 36.6401 59.7331 36.7559 59.7681 36.8766C59.8031 36.9973 59.8311 37.1204 59.864 37.2575C59.9993 37.3739 60.1166 37.528 60.2204 37.7104C60.3242 37.8928 60.4146 38.1034 60.496 38.3329C60.6294 38.5987 60.7478 38.9325 60.8561 39.3482C60.9644 39.7638 61.0673 40.1422 61.1534 40.4953C61.1882 40.483 61.209 40.4756 61.2209 40.487C61.2303 40.4915 61.2467 40.4935 61.2606 40.4886L61.2884 40.4787C61.4687 40.8767 61.6084 41.2264 61.7194 41.5393C61.8304 41.8522 61.849 42.2136 61.7751 42.6234C61.8222 42.6459 61.8097 42.7208 61.7468 42.8527C61.684 42.9845 61.6625 43.0783 61.6797 43.127C61.697 43.1757 61.6519 43.3795 61.5374 43.7411C61.4299 44.1002 61.2951 44.4925 61.1537 44.9106C61.0054 45.3312 60.882 45.7116 60.7601 46.0523C60.6477 46.3975 60.5903 46.5666 60.6111 46.5592L60.4891 46.7669C60.4891 46.7669 60.4989 46.7947 60.485 46.7997C60.4781 46.8021 60.4736 46.8116 60.481 46.8324C60.3917 47.0442 60.288 47.2375 60.1631 47.4149C60.1942 47.4587 60.2025 47.5262 60.1834 47.6269C59.8626 48.1791 59.4382 48.6819 58.9006 49.1309L58.6844 49.5365C58.5365 49.7377 58.397 49.7636 58.2777 49.6259C57.7543 49.9603 57.1556 50.2588 56.4795 50.5377C56.4447 50.5501 56.3911 50.5534 56.3162 50.5408C56.0777 50.6411 55.8344 50.7274 55.5811 50.7859C55.3278 50.8444 55.095 50.8722 54.8846 50.8529C53.9829 51.0475 53.237 50.9754 52.666 50.6456L52.3955 50.6554C52.3955 50.6554 52.3677 50.6653 52.3558 50.6538C52.3439 50.6424 52.33 50.6473 52.3161 50.6522L52.3439 50.6424C52.1617 50.6365 52.0213 50.6159 51.9415 50.5894C51.9271 50.8137 51.91 50.898 51.8784 50.831C51.8493 50.7709 51.8008 50.6784 51.7401 50.5512C51.5768 50.5544 51.3381 50.5216 51.0146 50.4484C50.6912 50.3752 50.3648 50.2718 50.0286 50.1405C49.683 50.0048 49.3627 49.8522 49.0489 49.6738C48.7376 49.5024 48.5052 49.3108 48.3404 49.111C48.3354 49.097 48.3897 49.0073 48.5012 48.8582C48.6127 48.709 48.7586 48.5242 48.9437 48.3176C49.1263 48.1041 49.3318 47.8668 49.5601 47.6058C49.7885 47.3447 50.0124 47.0931 50.2462 46.8692C50.2758 46.9527 50.3029 47.0292 50.3464 47.1077C50.383 47.1887 50.4289 47.2741 50.4774 47.3665L50.5532 47.4258L50.5144 47.4709L50.4798 47.3735L50.4422 47.3556L50.3928 47.4592C50.3928 47.4592 50.3917 47.5222 50.3524 47.544C50.3132 47.5657 50.3067 47.5915 50.3398 47.6189L50.5074 47.4733L50.4784 47.7889C50.5632 47.8293 50.6267 47.8538 50.6689 47.8623L50.5826 47.6189C50.5653 47.5702 50.5828 47.5092 50.633 47.4523C50.6808 47.3883 50.7196 47.3433 50.7495 47.317C50.6611 47.3327 50.5783 47.2759 50.4967 47.1561L50.3931 46.8641L50.2895 46.8147C50.486 46.5963 50.674 46.42 50.8555 46.2695C51.03 46.1215 51.1846 46.0275 51.3167 45.9806L51.4105 46.0022C51.4105 46.0022 51.4255 45.9342 51.4369 45.9223C51.4484 45.9105 51.4643 45.8891 51.4733 45.8703L51.6982 46.041L51.7359 46.059L51.9023 46.2192C52.0878 46.2786 52.2774 46.3053 52.4754 46.2899C52.6735 46.2744 52.8646 46.2615 53.0557 46.2485C53.2469 46.2355 53.422 46.2438 53.6046 46.273C53.7872 46.3022 53.9404 46.3809 54.0761 46.5207C54.2569 46.4566 54.4307 46.3949 54.6066 46.3169C54.7849 46.2458 54.9355 46.1846 55.0676 46.1377C55.0974 46.1115 55.1391 46.0967 55.1928 46.0933L55.2901 46.0588C55.4014 46.0193 55.4951 46.0409 55.5644 46.1259L55.6519 46.0635C55.6519 46.0635 55.651 46.0169 55.6735 45.9698C55.7915 45.7948 55.9382 45.6567 56.0878 45.5488C56.2375 45.4409 56.401 45.3281 56.5645 45.2153C56.5959 45.1494 56.6417 45.1018 56.7112 45.0772L56.8678 44.9668L57.0558 44.7905L57.1673 44.6414C57.2176 44.5844 57.2544 44.5557 57.2752 44.5483C57.249 44.5185 57.2337 44.4534 57.234 44.3437C57.2919 44.1979 57.3345 43.9871 57.3713 43.7157C57.3193 43.6793 57.2644 43.6127 57.1951 43.5277C57.1605 43.4303 57.1771 43.3227 57.2449 43.2047C57.2886 43.1735 57.3463 43.1374 57.4297 43.1078C57.43 42.9981 57.4233 42.8909 57.4096 42.7861C57.3959 42.6814 57.3986 42.5787 57.3968 42.4853C57.2872 42.4851 57.2138 42.4328 57.1719 42.3146L56.9252 41.6192C56.8414 41.3828 56.7669 41.1508 56.7064 40.914C56.6876 40.905 56.6638 40.8821 56.6515 40.8473C56.612 40.7361 56.5701 40.6179 56.5167 40.5115C56.4633 40.4052 56.4214 40.287 56.3819 40.1757L56.3586 40.1762ZM42.5057 36.5015C42.5055 36.6112 42.5216 36.7229 42.5427 36.8485C42.5637 36.9742 42.5918 37.0973 42.6247 37.2344C42.6478 37.1009 42.6472 36.9446 42.6228 36.7653L42.5266 36.4941L42.4988 36.504L42.5057 36.5015ZM43.2856 38.4796L43.3276 38.3551L43.3915 37.9175L43.1235 38.177L43.2856 38.4796ZM43.104 36.4224L43.1212 36.4711C43.1456 36.6503 43.1627 36.8087 43.1653 36.9487C43.1705 37.0956 43.1617 37.2474 43.1435 37.3948L43.255 37.2457L43.4053 37.0514L43.5981 36.5133C43.5981 36.5133 43.5732 36.5535 43.5593 36.5584C43.363 36.6672 43.2197 36.6162 43.1432 36.4007L43.0945 36.4179L43.104 36.4224ZM44.6347 39.1049C44.5598 39.0923 44.4874 39.0867 44.4194 39.0717C44.3514 39.0567 44.279 39.051 44.2041 39.0385C44.2164 39.0732 44.2263 39.1011 44.2198 39.1268C44.2227 39.1571 44.2256 39.1874 44.2355 39.2152C44.3534 39.283 44.381 39.3828 44.3112 39.5172L44.5362 39.6879L44.6347 39.1049ZM42.883 34.387C42.8689 34.5016 42.8617 34.6138 42.8545 34.7259C42.8473 34.8381 42.8471 34.9478 42.8468 35.0575C42.8657 35.0664 42.8919 35.0963 42.9092 35.145L42.937 35.1351L42.9758 35.09C42.9323 35.0115 42.942 34.9063 43.0048 34.7744C43.08 34.6773 43.1719 34.6055 43.2901 34.5636C43.344 34.4506 43.3958 34.3539 43.4546 34.2547C43.5159 34.1626 43.5677 34.0659 43.6289 33.9737C43.4434 33.9142 43.3107 33.8048 43.2376 33.6428C43.1855 33.6065 43.1707 33.5647 43.1932 33.5176L43.1653 33.5275C43.1857 33.7395 43.2245 33.9371 43.2886 34.1179C43.2819 34.2534 43.2276 34.3431 43.1352 34.3915C43.0427 34.44 42.9564 34.4393 42.8781 34.3731L42.883 34.387ZM44.4028 37.5901C44.3402 37.6123 44.2657 37.6231 44.1908 37.6105C44.0463 37.6226 43.9649 37.6358 43.9301 37.6482C43.9021 37.7677 43.8875 37.859 43.8839 37.9151C44.0003 37.7798 44.126 37.7588 44.2419 37.8429C44.2644 37.7958 44.3081 37.7646 44.3707 37.7424L44.4028 37.5901ZM44.2335 38.5035L44.2712 38.5214L44.2995 38.2922L44.236 38.5104L44.2335 38.5035ZM45.4029 40.1007C45.5126 40.101 45.5855 40.1299 45.6285 40.1851L45.7506 39.9774C45.8291 39.9339 45.8932 39.872 45.9594 39.7937C46.0256 39.7154 46.0799 39.6257 46.1337 39.5127L45.9254 39.477L45.8273 39.5979C45.6952 39.6447 45.5855 39.6445 45.5007 39.6041C45.4536 39.5817 45.42 39.531 45.3904 39.4475L45.1847 39.7945C45.2587 40.0031 45.3354 40.109 45.4029 40.1007ZM45.8467 40.4913L46.0163 40.5721L45.9719 40.4469L45.8467 40.4913ZM46.7951 40.5385C46.7936 40.3355 46.8378 40.085 46.9114 39.7849L46.4611 40.5239L46.4019 40.5997L46.7976 40.5455L46.7951 40.5385ZM43.8769 33.1498C43.9866 33.1501 44.0729 33.1508 44.134 33.1683L44.2769 32.9532L44.2392 32.9352L44.0974 32.8446L43.8744 33.1429L43.8769 33.1498ZM49.2673 48.2811C49.3645 48.3563 49.4685 48.429 49.5656 48.5041C49.6628 48.5793 49.7693 48.6589 49.8738 48.7549C49.9573 48.7253 50.0178 48.7195 50.0649 48.742L50.0927 48.7321L49.8985 48.5818C49.8985 48.5818 49.8817 48.5564 49.8608 48.5638C49.765 48.5587 49.6966 48.5203 49.6531 48.4418L49.4553 48.3475C49.3894 48.3161 49.3279 48.2753 49.2685 48.2181L49.2579 48.2766L49.2673 48.2811ZM44.158 30.7641C44.1876 30.8476 44.1845 30.927 44.1605 31.0138C44.1152 31.0847 44.0662 31.2116 44.0158 31.3783C43.9653 31.5449 43.9132 31.7513 43.8452 31.9789L44.2986 31.4032L44.4976 30.949C44.4142 30.9786 44.3319 30.9452 44.2413 30.8442L44.158 30.7641ZM45.7029 35.892C45.604 35.7236 45.5239 35.5641 45.4578 35.3997C45.3941 35.2422 45.3672 35.056 45.3865 34.8456L45.3692 34.7969C45.3692 34.7969 45.3345 34.8093 45.3156 34.8003C45.2968 34.7913 45.2759 34.7987 45.262 34.8036C45.2494 34.8786 45.2393 34.9604 45.2198 35.0378C45.2003 35.1152 45.1832 35.1995 45.1568 35.2794C45.3321 35.4207 45.449 35.5515 45.4959 35.6836C45.5255 35.7671 45.5198 35.8395 45.4884 35.9055L45.7004 35.8851L45.7029 35.892ZM50.3621 49.2707L51.2016 49.607L51.1917 49.5792L50.5095 49.0462C50.4244 49.1155 50.3459 49.159 50.2833 49.1812L50.3666 49.2613L50.3621 49.2707ZM44.7076 32.7769C44.7076 32.7769 44.7477 32.8018 44.7526 32.8157L44.9344 32.5556L44.7076 32.7769ZM47.4821 39.6059C47.4821 39.6059 47.4486 39.6883 47.454 39.7255C47.4594 39.7627 47.4484 39.798 47.426 39.8451L47.5868 39.5923C47.5868 39.5923 47.552 39.6046 47.5332 39.5956C47.5144 39.5867 47.4935 39.5941 47.4796 39.599L47.4821 39.6059ZM47.9692 40.4274C47.9972 40.3079 48.0367 40.1764 48.0782 40.0286C48.1222 39.8878 48.1592 39.7494 48.2082 39.6224L47.6708 40.4471L47.9692 40.4274ZM51.138 48.9642C51.0465 48.8166 50.9882 48.6963 50.9586 48.6129L50.9308 48.6227L50.8507 48.7059L50.9648 48.9395L51.138 48.9642ZM50.0626 37.0153C50.2398 37.0072 50.3464 37.0869 50.3708 37.2661C50.5639 37.2367 50.7591 37.191 50.9612 37.1428C51.1608 37.0877 51.3605 37.0325 51.5552 36.9634C51.7898 36.7863 52.0081 36.6071 52.2284 36.4115C52.4418 36.2184 52.6605 36.0625 52.8776 35.9464L52.9306 35.7867C52.8113 35.6489 52.8205 35.5204 52.9632 35.415L52.9773 35.3004C53.0767 35.0068 53.118 34.7259 53.1012 34.4579C53.0844 34.1898 53.0464 33.9058 52.9849 33.6223C52.8842 33.6032 52.8338 33.5272 52.8221 33.4061L52.8504 33.1768L52.7813 32.9821C52.7419 32.8708 52.7029 32.7829 52.6573 32.7208C52.6102 32.6983 52.5746 32.664 52.5364 32.6227C52.4983 32.5814 52.495 32.5278 52.5125 32.4668C52.4136 32.2984 52.3254 32.2044 52.2456 32.1779C52.1657 32.1514 52.1043 32.1106 52.0726 32.0435C52.041 31.9764 52.0332 31.9322 52.0556 31.8851C51.9773 31.819 51.904 31.7667 51.8307 31.7144C51.7573 31.6621 51.6909 31.6074 51.6266 31.5363C51.4411 31.4768 51.2446 31.4526 51.0535 31.4655C50.8554 31.481 50.6643 31.494 50.4732 31.507C50.282 31.5199 50.1069 31.5116 49.9292 31.4964C49.7516 31.4811 49.5934 31.3884 49.4553 31.2417C49.2745 31.3058 49.0937 31.37 48.9248 31.4455C48.7464 31.5166 48.5959 31.5778 48.4638 31.6247C48.42 31.6559 48.3783 31.6707 48.3386 31.6691L48.2413 31.7036C48.13 31.7431 48.0362 31.7215 47.9669 31.6365L47.8794 31.6989C47.8794 31.6989 47.8803 31.7455 47.8579 31.7926C47.7374 31.9606 47.6001 32.1033 47.4435 32.2136C47.287 32.3239 47.1304 32.4343 46.9668 32.5471C46.9354 32.613 46.8897 32.6606 46.8201 32.6852L46.6635 32.7956L46.4755 32.9719L46.364 33.121C46.3138 33.178 46.277 33.2067 46.2561 33.2141C46.2873 33.2578 46.305 33.3298 46.2974 33.4187C46.2469 33.5853 46.2018 33.7892 46.16 34.0467C46.2121 34.0831 46.267 34.1497 46.3363 34.2347C46.3758 34.346 46.3592 34.4536 46.2865 34.5577C46.2427 34.5889 46.1851 34.625 46.1016 34.6546C46.0875 34.7692 46.0897 34.8858 46.0989 35C46.1081 35.1142 46.1173 35.2284 46.124 35.3356C46.2038 35.3621 46.2633 35.4193 46.2904 35.4958C46.3175 35.5723 46.298 35.6496 46.2269 35.714C46.3009 35.9226 46.369 36.0707 46.4309 36.1348C46.4781 36.1573 46.5231 36.1961 46.5801 36.2463C46.6371 36.2966 46.6658 36.3334 46.6732 36.3543C46.9194 36.5409 47.2229 36.6681 47.5648 36.7269C47.9091 36.7927 48.235 36.8728 48.5474 36.9812C48.6044 37.0315 48.6356 37.0752 48.6479 37.11C48.8861 37.1194 49.1219 37.1219 49.3462 37.1363C49.5705 37.1507 49.8033 37.1229 50.0308 37.0579L50.0626 37.0153ZM50.1854 46.742L50.289 46.7914C50.289 46.7914 50.2522 46.8201 50.2298 46.8672L50.1854 46.742ZM45.7502 32.6263C45.6889 32.7185 45.6198 32.7665 45.5241 32.7613L45.3811 32.9764C45.4785 32.9419 45.5534 32.9545 45.6104 33.0047C45.6716 32.9125 45.7472 32.8387 45.8372 32.7834C45.9361 32.7091 46.0555 32.6042 46.1789 32.4665C46.3022 32.3287 46.4416 32.1697 46.6038 31.9869L46.1249 31.9611L45.7547 32.6169L45.7502 32.6263ZM44.6554 30.5329L44.7916 30.2106C44.6543 30.3533 44.5975 30.436 44.6098 30.4708L44.6549 30.5096L44.6648 30.5374L44.6554 30.5329ZM47.678 38.9884C47.678 38.9884 47.7296 39.0015 47.7643 38.9891L47.6984 38.9577C47.6984 38.9577 47.7013 38.988 47.6804 38.9954L47.678 38.9884ZM51.6417 49.9207C51.6417 49.9207 51.65 49.9882 51.6275 50.0353L51.7527 49.9909L51.6417 49.9207ZM45.3901 31.1257L45.3524 31.1077L45.1916 31.3605L45.2194 31.3506L45.3901 31.1257ZM47.8806 38.4782L48.2208 38.5767L48.3225 38.3997L47.9021 38.3844L47.8806 38.4782ZM48.8061 40.3811C48.7491 40.3309 48.7175 40.2638 48.7092 40.1963L48.6993 40.1684L48.5871 40.404L48.7991 40.3836L48.8061 40.3811ZM45.6097 29.6699C45.5832 29.7498 45.5567 29.8296 45.5278 29.9025C45.4988 29.9754 45.4654 30.0577 45.4181 30.145C45.4982 30.0618 45.5841 30.0391 45.6664 30.0726C45.7487 30.106 45.8081 30.1632 45.8377 30.2466C45.8864 30.2294 45.9237 30.224 45.945 30.2399L45.9351 30.2121C45.7844 30.1403 45.724 30.0364 45.7566 29.9075C45.7961 29.776 45.8836 29.7137 46.033 29.7155L46.2061 29.7402L46.3392 29.4973L46.3015 29.4793C46.0547 29.5121 45.8224 29.5632 45.6137 29.6372L45.5958 29.6748L45.6097 29.6699ZM52.0468 48.039L51.8736 48.0143L51.8521 48.1081C51.8521 48.1081 51.9126 48.1022 51.9945 48.1124L52.0537 48.0365L52.0468 48.039ZM50.0232 40.0825L50.1181 39.7983C50.0223 39.7931 49.929 39.7949 49.8263 39.7922C49.7236 39.7895 49.6303 39.7913 49.5345 39.7861L49.2271 40.3101L49.8076 40.1589L50.0302 40.08L50.0232 40.0825ZM52.3751 47.265C52.3751 47.265 52.4184 47.2105 52.4204 47.1941C52.4224 47.1777 52.4334 47.1425 52.4558 47.0954L52.0009 46.9827C52.0305 47.0662 52.0433 47.1243 52.0348 47.1664L52.3751 47.265ZM53.2322 49.9907C53.2322 49.9907 53.2073 50.0308 53.1934 50.0357L53.308 50.0499L53.3567 50.0326L53.2322 49.9907ZM53.5934 50.0818L53.5655 50.0916C53.5655 50.0916 53.5824 50.117 53.6032 50.1096L53.5934 50.0818ZM50.8424 41.3107L51.3084 41.1454C51.3084 41.1454 51.303 41.1082 51.3189 41.0869C51.2216 41.1214 51.1242 41.1559 51.0358 41.1716C50.943 41.1967 50.8476 41.2149 50.7453 41.2355C50.7229 41.2826 50.7 41.3064 50.6652 41.3187L50.8564 41.3058L50.8424 41.3107ZM52.8824 47.4373L53.1289 47.5143L53.1917 47.3824L52.9354 47.2776L52.8824 47.4373ZM53.8988 48.8461L53.8501 48.8634L53.6967 49.137L53.6338 49.2689C53.6338 49.2689 53.6437 49.2967 53.6576 49.2918C53.6646 49.2893 53.674 49.2938 53.6814 49.3146C53.7301 49.2974 53.7669 49.2687 53.7893 49.2216L53.9082 48.8506L53.8988 48.8461ZM50.6956 40.5877C50.6956 40.5877 50.7685 40.6167 50.7894 40.6093C50.9338 40.5972 51.0594 40.5761 51.1662 40.5461C51.273 40.516 51.3822 40.4929 51.4845 40.4723L51.5025 40.4346L51.4926 40.4068C51.2856 40.4411 51.0969 40.461 50.9336 40.4642C50.9247 40.483 50.8948 40.5092 50.8461 40.5265L50.7001 40.5783L50.6956 40.5877ZM46.9113 29.7641C46.9113 29.7641 46.9416 29.7612 46.949 29.782L47.0919 29.5669L47.1234 29.501L46.9138 29.771L46.9113 29.7641ZM54.5985 49.8035C54.5236 49.791 54.4552 49.7526 54.4047 49.6766C54.3473 49.603 54.348 49.5166 54.381 49.411L54.3532 49.4208L54.4826 49.234L54.3384 49.3791C54.2996 49.4242 54.2608 49.4693 54.2219 49.5144L54.1093 49.9692L54.5961 49.7966L54.5985 49.8035ZM50.5104 38.3439C50.5104 38.3439 50.4492 38.4361 50.3989 38.4931L50.4927 38.5146L50.5174 38.3415L50.5104 38.3439ZM47.1945 27.8474C47.111 27.877 47.0415 27.9016 46.9769 27.9402C46.9167 27.9694 46.8452 28.0104 46.7667 28.0539L47.3299 27.8541L47.2923 27.8362C47.2923 27.8362 47.2337 27.8256 47.185 27.8429L47.1945 27.8474ZM48.8966 30.4613C48.8794 30.4126 48.8767 30.2726 48.8911 30.0483L48.6587 29.8567C48.6587 29.8567 48.6044 29.9464 48.5631 29.9846C48.5219 30.0227 48.4925 30.0722 48.4676 30.1124C48.5369 30.1974 48.5431 30.2813 48.4864 30.3641C48.4296 30.4468 48.3441 30.4928 48.2136 30.5C48.1523 30.5922 48.0911 30.6843 48.018 30.7651C47.9448 30.8458 47.8786 30.9241 47.8125 31.0024L47.9585 30.9506C48.3044 30.7339 48.6333 30.6016 48.9426 30.5467C48.9377 30.5328 48.9327 30.5189 48.9164 30.5169C48.9069 30.5124 48.8926 30.494 48.8802 30.4592L48.8966 30.4613ZM47.6312 29.6966L47.5405 29.8384L47.6928 29.8705L48.1155 29.0316L47.8925 29.3299L47.6381 29.6942L47.6312 29.6966ZM47.117 28.556C47.117 28.556 47.2242 28.5492 47.3215 28.5147L47.3117 28.4869L47.117 28.556ZM54.8137 49.7037L54.7748 49.7488L54.9974 49.6699C54.9752 49.6073 54.9759 49.5209 54.9949 49.4202L54.8206 49.7013L54.8137 49.7037ZM53.967 47.1622L53.9769 47.19L54.0977 47.2881L54.157 47.2123L53.9764 47.1667L53.967 47.1622ZM51.0643 37.8969C51.0548 38.1352 51.0261 38.3411 50.9756 38.5077C51.0227 38.5302 51.0391 38.5322 51.0341 38.5183C51.1407 38.3552 51.2702 38.1684 51.418 37.9672L51.3144 37.9178C51.2608 37.9212 51.2206 37.8963 51.2034 37.8476L51.0573 37.8994L51.0643 37.8969ZM51.6919 39.3575C51.7406 39.3402 51.7893 39.323 51.833 39.2918C51.8792 39.2676 51.9255 39.2434 51.9741 39.2261L52.0055 39.1602L51.783 39.2391L51.685 39.36L51.6919 39.3575ZM54.6363 47.2614C54.6536 47.3101 54.6563 47.4501 54.6419 47.6744L54.8742 47.866C54.8742 47.866 54.9285 47.7763 54.9698 47.7381C55.0086 47.6931 55.0405 47.6504 55.0654 47.6103C54.9961 47.5253 54.9898 47.4414 55.0466 47.3586C55.1033 47.2759 55.1888 47.2299 55.3124 47.2252C55.3736 47.133 55.4349 47.0408 55.508 46.9601C55.5812 46.8793 55.6473 46.8011 55.7135 46.7228L55.5675 46.7746C55.2216 46.9912 54.8927 47.1235 54.5834 47.1784C54.5883 47.1923 54.5933 47.2063 54.6096 47.2083C54.6191 47.2128 54.6334 47.2312 54.6457 47.2659L54.6363 47.2614ZM55.8924 48.0216L55.983 47.8798L55.8307 47.8477L55.4149 48.6841L55.6379 48.3858L55.8924 48.0216ZM52.7465 40.0795L52.6523 40.2773C52.6835 40.321 52.6987 40.3861 52.6936 40.4819L52.7214 40.472C52.7214 40.472 52.7111 40.4209 52.7319 40.4135L52.9278 40.0387L52.7441 40.0725L52.7465 40.0795ZM48.7193 28.0189L48.7581 27.9739L48.5356 28.0528C48.5652 28.1362 48.562 28.2156 48.538 28.3025L48.7123 28.0214L48.7193 28.0189ZM52.188 38.5709L52.2539 38.6023C52.2665 38.5274 52.277 38.4689 52.2995 38.4218L52.188 38.5709ZM56.3315 49.8778C56.415 49.8482 56.4845 49.8235 56.5491 49.7849C56.6092 49.7558 56.6808 49.7148 56.7593 49.6712L56.1961 49.871L56.2337 49.889C56.2337 49.889 56.2923 49.8995 56.341 49.8823L56.3315 49.8778ZM52.205 37.3828C52.1264 37.4263 52.0132 37.4821 51.8463 37.5413L52.1341 37.5801L52.2456 37.431C52.2456 37.431 52.2054 37.4061 52.2005 37.3922L52.205 37.3828ZM49.5635 30.5535L49.5536 30.5257L49.4327 30.4277L49.3735 30.5035L49.5541 30.549L49.5635 30.5535ZM56.4065 49.1622C56.4065 49.1622 56.2993 49.169 56.202 49.2035L56.2118 49.2313L56.4065 49.1622ZM48.925 27.9147C48.9999 27.9272 49.0683 27.9656 49.1188 28.0417C49.1762 28.1152 49.1755 28.2016 49.1425 28.3072L49.1703 28.2974L49.0409 28.4842C49.0911 28.4272 49.1439 28.3772 49.1851 28.3391C49.2264 28.301 49.2628 28.2489 49.3016 28.2039L49.4142 27.749L48.9275 27.9216L48.925 27.9147ZM56.6146 47.9611C56.6146 47.9611 56.5844 47.964 56.577 47.9431L56.434 48.1582L56.4026 48.2242L56.6122 47.9541L56.6146 47.9611ZM49.6272 28.8791L49.6759 28.8618L49.8293 28.5882L49.8921 28.4563C49.8921 28.4563 49.8823 28.4285 49.8684 28.4334C49.8614 28.4359 49.852 28.4314 49.8446 28.4105C49.7959 28.4278 49.7591 28.4565 49.7367 28.5036L49.6178 28.8746L49.6272 28.8791ZM50.6481 30.2784L50.4015 30.2015L50.3387 30.3334L50.5951 30.4381L50.6481 30.2784ZM53.8881 38.0227C53.817 38.0871 53.7528 38.149 53.6842 38.2203C53.6155 38.2916 53.5612 38.3813 53.5049 38.4874C53.5834 38.4439 53.6967 38.3881 53.8636 38.3289L53.8926 38.0133L53.8881 38.0227ZM53.2452 36.7398C53.2048 36.8246 53.1709 36.8836 53.1435 36.9168L53.2267 36.9968L53.2452 36.7398ZM57.9138 48.0483C57.9403 47.9684 57.9668 47.8886 57.9957 47.8157C58.0247 47.7428 58.0581 47.6605 58.1054 47.5732C58.0254 47.6564 57.9394 47.6791 57.8571 47.6457C57.7748 47.6122 57.7154 47.555 57.6858 47.4716C57.6371 47.4888 57.5999 47.4942 57.5786 47.4783L57.5884 47.5061C57.7392 47.5779 57.7995 47.6818 57.7669 47.8107C57.7274 47.9422 57.64 48.0045 57.4906 48.0027L57.3174 47.978L57.1844 48.2209L57.222 48.2389C57.4479 48.2135 57.6803 48.1624 57.9098 48.081L57.9277 48.0434L57.9138 48.0483ZM49.9055 27.5669L49.9326 27.6434C50.0075 27.656 50.1271 27.684 50.2938 27.7345C50.3027 27.7157 50.3256 27.6919 50.3604 27.6796C50.4593 27.6053 50.5452 27.5827 50.6136 27.621L50.6414 27.6112L50.652 27.5526C50.652 27.5526 50.5647 27.5053 50.5152 27.4759C50.4656 27.4465 50.423 27.4147 50.371 27.3783C50.362 27.3972 50.3391 27.4209 50.3043 27.4333L49.9149 27.5714L49.9055 27.5669ZM51.1509 30.4602C51.1509 30.4602 51.1076 30.5147 51.1056 30.5311C51.1036 30.5475 51.0926 30.5827 51.0702 30.6298L51.525 30.7424C51.4954 30.659 51.4827 30.6009 51.4912 30.5587L51.1509 30.4602ZM54.2324 36.4992C54.2654 36.3936 54.3217 36.2875 54.3755 36.1745C54.4363 36.0589 54.4877 35.9389 54.5366 35.812L54.5088 35.8219C54.3574 36.0791 54.2362 36.3335 54.1364 36.6038C54.0365 36.874 53.9317 37.1304 53.82 37.3892L53.8478 37.3794C53.9104 37.3572 53.9615 37.3469 54.0037 37.3554C54.056 37.0394 54.1301 36.7626 54.2254 36.5017L54.2324 36.4992ZM57.7758 45.0988C57.8371 45.0066 57.9062 44.9586 58.0019 44.9638L58.1448 44.7487C58.0475 44.7833 57.9726 44.7707 57.9156 44.7204C57.8544 44.8126 57.7788 44.8864 57.6888 44.9418C57.5829 45.0185 57.4705 45.121 57.3471 45.2587C57.2237 45.3964 57.0844 45.5554 56.9222 45.7382L57.4011 45.7641L57.7713 45.1082L57.7758 45.0988ZM51.4862 29.6837L51.6593 29.7084L51.6809 29.6146C51.6809 29.6146 51.6203 29.6204 51.5384 29.6103L51.4792 29.6862L51.4862 29.6837ZM51.9627 30.8064L51.9239 30.8515C51.9239 30.8515 51.975 30.8412 51.9824 30.862L51.9651 30.8134L51.9627 30.8064ZM53.8686 36.0254L53.9808 35.7899C53.9808 35.7899 53.953 35.7998 53.9411 35.7884C53.9292 35.7769 53.9153 35.7819 53.9014 35.7868L53.8731 36.016L53.8686 36.0254ZM54.8408 37.6848C54.8408 37.6848 54.8686 37.6749 54.8706 37.6586C54.8751 37.6491 54.8866 37.6372 54.9005 37.6323L55.0544 37.1393L54.6811 37.8745C54.6811 37.8745 54.7313 37.8176 54.7611 37.7913C54.791 37.7651 54.8089 37.7274 54.8314 37.6803L54.8408 37.6848ZM51.5973 28.5404L51.4827 28.5262L51.6072 28.5682L51.5973 28.5404ZM52.5334 31.4886C52.5334 31.4886 52.6256 31.5499 52.6826 31.6001L52.6931 31.5416L52.5334 31.4886ZM54.3714 35.1034C54.1783 35.1327 54.0742 35.06 54.0453 34.8902L53.964 35.2792C54.0737 35.2794 54.174 35.2752 54.2698 35.2803L54.3714 35.1034ZM51.1498 27.1021L51.2263 27.0749C51.2263 27.0749 51.1985 27.0848 51.1866 27.0734C51.1772 27.0689 51.1608 27.0668 51.1469 27.0718L51.1568 27.0996L51.1498 27.1021ZM58.1403 46.5901L58.178 46.608L58.3389 46.3553L58.3111 46.3651L58.1403 46.5901ZM53.5731 33.6251L53.5978 33.4519L53.504 33.4304L53.5731 33.6251ZM52.7578 31.0176C52.7578 31.0176 52.7951 31.0122 52.8164 31.0281L52.8411 30.855L52.7603 31.0245L52.7578 31.0176ZM54.0884 34.7027C54.0884 34.7027 54.1263 34.611 54.1324 34.5619C54.1454 34.5103 54.1584 34.4587 54.169 34.4001L54.1313 34.3822C54.1048 34.462 54.0862 34.5861 54.061 34.7359L54.079 34.6982L54.0884 34.7027ZM55.3228 37.8739L55.3894 37.819L55.3623 37.7425L55.3203 37.867L55.3228 37.8739ZM58.8776 47.1898L58.7414 47.5121C58.8717 47.3719 58.9354 47.2867 58.9231 47.2519L58.878 47.2131L58.8682 47.1853L58.8776 47.1898ZM53.0083 29.4726L52.8136 29.5416C52.7872 29.6215 52.7676 29.6989 52.7456 29.7693C52.7236 29.8397 52.7111 29.9147 52.6985 29.9896L52.7263 29.9797L53.0128 29.4632L53.0083 29.4726ZM54.2965 33.5016C54.4059 33.6115 54.3967 33.74 54.2713 33.8941C54.2852 33.8892 54.2991 33.8842 54.311 33.8957C54.3204 33.9002 54.3368 33.9022 54.3507 33.8973L54.7782 32.6966C54.7782 32.6966 54.7504 32.7065 54.7454 32.6925C54.7405 32.6786 54.7335 32.6811 54.7127 32.6885C54.631 32.8114 54.5449 32.9437 54.4706 33.0875C54.3963 33.2313 54.336 33.3701 54.2871 33.4971L54.2965 33.5016ZM52.5206 28.7375L52.5484 28.7276L52.5663 28.6899L52.5769 28.6314L52.5392 28.6134L52.5251 28.728L52.5206 28.7375ZM55.5396 37.2491L55.7578 37.3126L55.8626 37.0562L55.7868 36.997C55.7868 36.997 55.6946 36.9357 55.6376 36.8855L55.5465 37.2466L55.5396 37.2491ZM59.3749 46.9586C59.3527 46.896 59.3534 46.8096 59.3725 46.7089C59.4178 46.638 59.4667 46.5111 59.5147 46.3375C59.5627 46.1639 59.6173 45.9645 59.6853 45.7368L59.2319 46.3125L59.0329 46.7667C59.0954 46.7445 59.1847 46.7755 59.2892 46.8715L59.3724 46.9516L59.3749 46.9586ZM56.1352 38.1338C56.1352 38.1338 56.0668 38.0954 56.0594 38.0746L56.1112 38.2206C56.1112 38.2206 56.1103 38.174 56.1328 38.1268L56.1352 38.1338ZM56.29 38.4156C56.29 38.4156 56.2621 38.4254 56.2503 38.414C56.2384 38.4025 56.2245 38.4075 56.2105 38.4124L56.1827 38.4223L56.3695 38.7944C56.387 38.7334 56.3976 38.6749 56.4012 38.6188C56.4048 38.5627 56.4084 38.5066 56.412 38.4506L56.2875 38.4086L56.29 38.4156ZM58.8254 44.9458C58.8254 44.9458 58.7852 44.9209 58.7803 44.907L58.5986 45.1671L58.8254 44.9458ZM56.8885 39.5733C56.8885 39.5733 56.8373 39.5836 56.8299 39.5627L56.8571 39.6392L56.8849 39.6294C56.8849 39.6294 56.875 39.6016 56.8889 39.5966C56.9028 39.5917 56.9004 39.5847 56.893 39.5639L56.8885 39.5733ZM53.0728 28.8156L53.0549 28.8533L53.1793 28.8952C53.2453 28.9266 53.2928 28.9724 53.3175 29.0419L53.3877 28.9309L53.0753 28.8225L53.0728 28.8156ZM53.5551 30.2416C53.5551 30.2416 53.5863 30.2853 53.6211 30.273L53.6309 30.3008L53.8681 29.8879L53.8403 29.8978L53.7366 29.8484L53.7268 29.8206L53.5482 30.2441L53.5551 30.2416ZM58.1637 42.9258C58.1637 42.9258 58.1985 42.9134 58.2173 42.9224C58.2337 42.9244 58.257 42.924 58.2709 42.9191C58.2835 42.8441 58.2936 42.7623 58.3131 42.6849C58.3326 42.6075 58.3497 42.5232 58.3762 42.4433C58.2082 42.3228 58.0889 42.1851 58.0371 42.0391L58.0198 41.9904L57.9705 42.094C58.099 42.3459 58.153 42.6086 58.1419 42.8865L58.1592 42.9352L58.1637 42.9258ZM55.5899 33.0428C55.5899 33.0428 55.5845 33.0056 55.6005 32.9843L55.4686 32.9214L55.0077 33.9617C55.0077 33.9617 55.0961 33.946 55.171 33.9586L55.269 33.8377C55.3193 33.7807 55.363 33.7496 55.3978 33.7372C55.4104 33.6623 55.423 33.5874 55.4449 33.517C55.4669 33.4465 55.4865 33.3692 55.5129 33.2893C55.4784 33.192 55.5049 33.1121 55.5899 33.0428ZM54.7146 31.811L54.611 31.7616L54.4952 32.0532C54.4952 32.0532 54.5255 32.0503 54.5329 32.0712L54.7146 31.811ZM54.3464 30.6185C54.3464 30.6185 54.3038 30.5867 54.2915 30.5519L54.1517 30.9303L54.344 30.6116L54.3464 30.6185ZM58.042 41.8103L58.0044 41.7923L58.0142 41.8201L58.042 41.8103ZM56.7791 37.6314L56.7026 37.6586L56.747 37.7837L56.7791 37.6314ZM59.656 44.5728C59.5464 44.5726 59.46 44.5719 59.399 44.5544L59.2561 44.7695L59.2938 44.7875L59.4355 44.8781L59.6585 44.5798L59.656 44.5728ZM54.6287 30.2444L54.6601 30.1785L54.4696 30.1051C54.4696 30.1051 54.4263 30.1596 54.4243 30.176C54.4223 30.1924 54.4158 30.2181 54.4068 30.237C54.4555 30.2197 54.5279 30.2253 54.6287 30.2444ZM55.0565 31.3844C55.1018 31.3135 55.1794 31.2234 55.2869 31.107C55.2349 31.0706 55.1783 31.0437 55.1149 31.0192C55.0514 30.9948 54.9973 30.9748 54.9502 30.9524C54.9278 30.9995 54.8984 31.0491 54.8645 31.108C54.8306 31.167 54.8037 31.2236 54.7862 31.2846L54.814 31.2747L55.0495 31.3869L55.0565 31.3844ZM57.4275 37.9808C57.4275 37.9808 57.373 37.9375 57.3566 37.9354C57.3402 37.9334 57.3144 37.9269 57.2956 37.9179L57.2635 38.0702C57.2635 38.0702 57.2734 38.0981 57.2873 38.0931C57.2942 38.0907 57.3037 38.0952 57.3111 38.116L57.43 37.9877L57.4275 37.9808ZM54.0038 27.7103L53.6815 27.5741C53.7127 27.6179 53.7537 27.6894 53.7883 27.7868C53.8632 27.7993 53.9217 27.8099 53.9688 27.8323L54.0108 27.7078L54.0038 27.7103ZM58.7106 41.1347L58.7451 41.2321L58.8703 41.1877L58.7106 41.1347ZM58.9017 41.1217C58.9017 41.1217 58.8615 41.0968 58.8566 41.0829L58.8387 41.1206L58.8972 41.1312L58.9017 41.1217ZM53.5918 25.9306C53.6091 25.9793 53.6144 26.0165 53.5985 26.0378C53.6768 26.104 53.7391 26.1915 53.7786 26.3027L53.8279 26.1991C53.762 26.1677 53.7468 26.1027 53.7867 25.9945C53.7728 25.9995 53.7564 25.9975 53.749 25.9766L53.7768 25.9667C53.7407 25.9091 53.7185 25.8465 53.7152 25.7929L53.5512 25.8824C53.5512 25.8824 53.5839 25.8864 53.5963 25.9212L53.5918 25.9306ZM60.6499 43.3357C60.664 43.2211 60.6712 43.1089 60.6784 42.9968C60.6856 42.8846 60.6859 42.7749 60.6861 42.6652C60.6673 42.6562 60.641 42.6264 60.6238 42.5777L60.5959 42.5876L60.5571 42.6327C60.6006 42.7112 60.591 42.8164 60.5281 42.9483C60.453 43.0454 60.361 43.1172 60.2428 43.1591C60.1889 43.2721 60.1371 43.3688 60.0783 43.4679L59.904 43.749C60.0895 43.8084 60.2223 43.9179 60.2954 44.0799C60.3474 44.1162 60.3622 44.158 60.3398 44.2051L60.3676 44.1952C60.3472 43.9832 60.3084 43.7856 60.2443 43.6048C60.2535 43.4763 60.3053 43.3796 60.3978 43.3312C60.4902 43.2827 60.5765 43.2834 60.6548 43.3496L60.6499 43.3357ZM55.3085 30.5278C55.3085 30.5278 55.3457 30.5224 55.367 30.5384C55.3621 30.5245 55.3572 30.5105 55.3686 30.4987C55.3801 30.4868 55.3727 30.4659 55.3603 30.4311L55.311 30.5348L55.3085 30.5278ZM58.7817 39.4811L58.6356 39.5329L58.6042 39.5989L58.7251 39.6969L58.8059 39.5273L58.7886 39.4787L58.7817 39.4811ZM57.1262 35.0344C57.1262 35.0344 57.136 35.0622 57.1221 35.0672C57.1082 35.0721 57.1107 35.0791 57.1181 35.0999L57.1459 35.0901L57.1565 35.0315L57.1286 35.0414L57.1262 35.0344ZM60.0546 41.1277C59.9589 41.1226 59.8492 41.1223 59.7231 41.1201C59.597 41.1178 59.4595 41.1274 59.3151 41.1395L59.916 41.2004C59.916 41.2004 59.9409 41.1602 59.9548 41.1553L60.0522 41.1208L60.0546 41.1277ZM59.1659 39.9242L59.3927 39.7028L59.3828 39.4323L59.3451 39.4144C59.2272 39.3466 59.1047 39.2883 58.9777 39.2393L58.9593 39.4964L58.9414 39.5341L59.1659 39.9242ZM59.127 39.9693C59.127 39.9693 59.1017 39.9861 59.1091 40.007L59.127 39.9693ZM56.4632 32.459L56.4812 32.4214L56.4534 32.4312L56.4632 32.459ZM59.1831 39.9729L59.4056 39.8939L59.3958 39.8661L59.1733 39.945L59.1831 39.9729ZM59.4316 40.5189L59.3951 39.9525L59.2004 40.0215L59.4316 40.5189ZM58.5333 36.1324C58.5333 36.1324 58.5722 36.0873 58.6208 36.07L58.445 35.6627L58.4031 35.7871L58.3753 35.797L58.2638 35.9462C58.2274 35.9982 58.1955 36.0408 58.1731 36.0879C58.1679 36.1837 58.1365 36.2496 58.0789 36.2857L58.1825 36.3351C58.2056 36.2016 58.3164 36.1389 58.506 36.1656L58.5239 36.1279L58.5333 36.1324ZM59.0404 38.7317L59.4287 38.8993C59.4603 38.7237 59.4756 38.5461 59.4909 38.3684C59.4992 38.1932 59.5026 38.0041 59.4871 37.8061C59.3723 37.9016 59.2599 38.0041 59.1594 38.118C59.0494 38.2275 59.0209 38.3237 59.0644 38.4022C59.094 38.4857 59.0884 38.5581 59.057 38.6241L59.0429 38.7387L59.0404 38.7317ZM58.1499 35.3603C58.1986 35.343 58.2358 35.3376 58.2571 35.3535L58.2614 35.2111C58.2614 35.2111 58.2167 35.1956 58.2028 35.2006L58.0734 35.3874L58.1499 35.3603ZM56.8926 31.7274C56.8926 31.7274 56.9095 31.7527 56.9303 31.7453C57.012 31.8651 57.0187 31.9724 56.9574 32.0645L57.0893 32.1274L57.003 31.884C56.9734 31.8005 56.9483 31.7077 56.9346 31.6029L56.8926 31.7274ZM58.7856 36.7553C58.773 36.8302 58.7674 36.9027 58.7638 36.9588C58.7602 37.0148 58.7497 37.0734 58.753 37.127L58.9348 36.8668L58.8484 36.6234L58.7856 36.7553ZM54.8219 25.8231L54.804 25.8608L54.8526 25.8435L54.815 25.8255L54.8219 25.8231ZM55.3879 27.1098L55.3262 26.9359C55.3262 26.9359 55.2984 26.9458 55.2964 26.9622C55.2919 26.9716 55.2805 26.9835 55.2666 26.9884L55.3949 27.1073L55.3879 27.1098ZM54.6807 25.2704C54.6807 25.2704 54.7482 25.2621 54.7953 25.2845L54.8267 25.2186L54.8094 25.1699L54.6807 25.2704ZM55.4397 27.2558L55.4224 27.2071L55.391 27.2731L55.4397 27.2558ZM56.3079 29.7036L56.298 29.6758C56.298 29.6758 56.2534 29.6603 56.2395 29.6652L56.3054 29.6966L56.3079 29.7036ZM56.24 28.9605L56.306 28.9919L56.2887 28.9432L56.24 28.9605Z" fill="black"/>
</g>
<defs>
<clipPath id="clip0_4275_983">
<rect width="49.3466" height="50.66" fill="white" transform="translate(0.518555 16.6108) rotate(-19.5292)"/>
</clipPath>
</defs>
</svg>
