<svg width="73" height="72" viewBox="0 0 73 72" fill="none" xmlns="http://www.w3.org/2000/svg">
<path d="M54.9249 27.5414C54.8149 26.3948 54.7048 25.2482 54.5947 24.1016C54.4413 22.4525 54.2758 20.8077 54.1223 19.1586C54.1205 19.0775 54.0905 18.9928 54.0724 18.9038C53.8962 18.939 53.7859 19.0463 53.6627 19.1172C51.8336 20.2703 50.0087 21.4354 48.1915 22.5842C48.1359 22.6175 48.064 22.643 47.9802 22.6727C47.1 21.6358 46.2404 20.6187 45.344 19.5739C45.1553 19.9542 45.0222 20.3013 44.8772 20.6525C44.7201 21.0081 44.5751 21.3593 44.418 21.7148C44.2653 22.0825 44.1082 22.438 43.9555 22.8056C43.7985 23.1611 43.6534 23.5124 43.4964 23.8679C43.3393 24.2234 43.1943 24.5747 43.0372 24.9302C42.8802 25.2857 42.7351 25.637 42.59 25.9883C42.4373 26.3559 42.2846 26.7235 42.1275 27.079C41.9705 27.4346 41.8537 27.7894 41.6333 28.1947C41.4975 27.6977 41.4114 27.2649 41.2971 26.8285C41.187 26.4041 41.1009 25.9713 41.0028 25.5428C40.9005 25.1021 40.7981 24.6614 40.6957 24.2208C40.5934 23.7801 40.479 23.3437 40.3766 22.903C40.2743 22.4623 40.1719 22.0216 40.0695 21.581C39.9715 21.1524 39.8734 20.7238 39.7753 20.2953C39.6729 19.8546 39.5706 19.4139 39.4562 18.9775C39.3538 18.5368 39.2515 18.0962 39.1491 17.6555C39.0467 17.2148 38.9443 16.7742 38.842 16.3335C38.7439 15.9049 38.6458 15.4764 38.5358 15.052C38.4214 14.6156 38.3593 14.1743 38.209 13.7506C38.0687 13.7731 38.0063 13.8634 37.9353 13.9295C37.0249 14.7839 36.1145 15.6383 35.1998 16.4806C35.1169 16.5509 35.0469 16.6575 34.9065 16.68C34.8286 16.6122 34.7506 16.5445 34.6684 16.4647C32.852 14.7649 31.0434 13.0487 29.227 11.349C28.7052 10.8663 28.1954 10.3793 27.6856 9.89236C27.6034 9.81251 27.5211 9.73266 27.391 9.6698C27.2435 10.8124 27.1156 11.9343 26.9834 13.0442C26.8436 14.1704 26.72 15.3045 26.5801 16.4307C26.448 17.5406 26.3201 18.6626 26.1682 19.793C26.0758 19.7986 26.0117 19.8077 25.9269 19.7969C25.6085 19.7735 25.2901 19.7502 24.9718 19.7268C23.8471 19.6351 22.7148 19.5597 21.5945 19.4801C21.514 19.4814 21.4284 19.43 21.342 19.5288C21.7676 20.3863 22.2213 21.2475 22.6708 22.0965C23.1126 22.962 23.562 23.811 24.0038 24.6764C24.4456 25.5418 24.8951 26.3909 25.3368 27.2563C25.7786 28.1217 26.2161 28.975 26.6818 29.8319C27.4126 31.2081 27.9222 32.2266 27.967 32.4288C27.854 32.4143 27.7683 32.3629 27.6707 32.3158C26.3007 31.6842 24.9229 31.069 23.5529 30.4375C22.3455 29.8845 21.1382 29.3315 19.9351 28.7906C19.8418 28.7556 19.7596 28.6758 19.6355 28.7061C19.633 28.7751 19.6305 28.8442 19.64 28.9089C19.6703 29.9067 19.7006 30.9044 19.7309 31.9021C19.737 31.9954 19.7594 32.0964 19.6774 32.2073C17.3305 32.699 14.9468 33.1629 12.5717 33.651C12.5624 33.777 12.6284 33.849 12.6824 33.9252C12.9113 34.2665 13.1282 34.612 13.3571 34.9533C14.5652 36.8007 15.7775 38.6602 16.9976 40.5033C17.1228 40.7042 17.2479 40.9051 17.3774 41.1181C17.186 41.3768 17.0023 41.6191 16.8109 41.8778C16.6272 42.1201 16.4555 42.3582 16.2718 42.6005C16.0881 42.8429 15.8967 43.1015 15.713 43.3439C15.5336 43.5983 15.3293 43.8207 15.1628 44.1114C16.3769 44.6075 17.5748 45.0957 18.7726 45.5839C19.9585 46.0763 21.1521 46.5524 22.338 47.0449C23.5358 47.5331 24.7337 48.0213 25.9315 48.5095C27.1294 48.9977 28.3273 49.4859 29.5294 49.9862C29.559 50.4118 29.5963 50.8211 29.6293 51.2182C29.6666 51.6275 29.6876 52.0288 29.7249 52.4381C29.7622 52.8473 29.7832 53.2487 29.8205 53.6579C29.8578 54.0672 29.8626 54.4607 29.9358 54.8572C29.9683 54.8729 29.9846 54.8808 29.9803 54.8687C33.4398 53.0284 36.907 51.1717 40.3862 49.3108C40.6165 49.3517 40.7758 49.4588 40.8171 49.6894C40.818 49.73 40.8472 49.7741 40.8601 49.8104C41.1419 50.719 41.4313 51.6111 41.7131 52.5197C42.2019 54.0498 42.6907 55.5799 43.1632 57.1022C43.7431 58.9271 44.311 60.7563 44.8909 62.5812C44.9166 62.6538 44.9587 62.7343 44.9887 62.819C45.289 62.7534 45.5482 62.6478 45.8194 62.538C46.0948 62.4403 46.3789 62.3668 46.6611 62.2122C46.6096 62.067 46.5623 61.9338 46.5151 61.8006C45.0639 57.7091 43.6169 53.6297 42.1657 49.5381C42.0025 49.0781 42.0025 49.0781 42.2511 48.6765C42.2665 48.6438 42.2904 48.6353 42.3177 48.5984C42.8465 48.4926 43.3796 48.3989 43.9083 48.2932C44.4251 48.1916 44.9582 48.098 45.4792 48.0085C46.0123 47.9149 46.541 47.8091 47.0861 47.7112C47.6072 47.6217 48.1359 47.5159 48.657 47.4265C49.19 47.3328 49.7188 47.2271 50.2519 47.1334C50.7729 47.044 51.306 46.9503 51.8185 46.8367C52.3472 46.7309 52.8889 46.6614 53.445 46.5187C53.036 45.8597 52.6398 45.237 52.2437 44.6144C51.8433 43.9796 51.4309 43.3491 51.0381 42.698C51.0919 42.5835 51.15 42.4811 51.2038 42.3666C52.9073 39.1867 54.6108 36.0068 56.3023 32.8311C57.0093 31.5174 57.7044 30.2079 58.4114 28.8941C58.4541 28.8244 58.5088 28.7505 58.4821 28.6373C57.3084 28.3313 56.1271 28.0417 54.9414 27.74C54.9654 27.7315 54.931 27.6346 54.9249 27.5414Z" fill="#E5281F"/>
</svg>
