<svg width="33" height="32" viewBox="0 0 33 32" fill="none" xmlns="http://www.w3.org/2000/svg">
<g clip-path="url(#clip0_4275_342)">
<path d="M16.5 28C23.1274 28 28.5 22.6274 28.5 16C28.5 9.37258 23.1274 4 16.5 4C9.87258 4 4.5 9.37258 4.5 16C4.5 22.6274 9.87258 28 16.5 28Z" stroke="#50AC5A" stroke-width="2" stroke-linecap="round" stroke-linejoin="round"/>
<path d="M9.98511 15.4077L11.6501 12.5002C11.738 12.3479 11.8645 12.2216 12.0168 12.1338C12.1691 12.046 12.3418 11.9999 12.5176 12.0002H14.6064C14.7752 12.0005 14.9414 11.9574 15.0889 11.8752L16.6251 11.0302C16.6927 10.9938 16.7553 10.9489 16.8114 10.8964L20.1764 7.85518C20.3438 7.7029 20.4546 7.49833 20.4907 7.27491C20.5268 7.05149 20.4861 6.82243 20.3751 6.62518L19.0626 4.27393" stroke="#50AC5A" stroke-width="2" stroke-linecap="round" stroke-linejoin="round"/>
<path d="M8.97258 6.65381L7.50008 10.1351C7.40061 10.3707 7.39525 10.6356 7.48508 10.8751L8.92258 14.7088C8.98164 14.8654 9.07908 15.0048 9.20597 15.114C9.33286 15.2232 9.48513 15.2987 9.64883 15.3338L12.3276 15.9101C12.4762 15.9419 12.6155 16.0072 12.7351 16.101C12.8546 16.1948 12.9512 16.3146 13.0176 16.4513L13.4926 17.4351C13.5745 17.6041 13.7024 17.7466 13.8616 17.8463C14.0207 17.946 14.2048 17.9988 14.3926 17.9988H16.1176" stroke="#50AC5A" stroke-width="2" stroke-linecap="round" stroke-linejoin="round"/>
<path d="M27.1362 21.5598L20.5887 17.5323C20.4696 17.4597 20.3368 17.4125 20.1987 17.3936L17.3462 17.0086C17.1319 16.9795 16.9141 17.0208 16.7252 17.126C16.5364 17.2312 16.3867 17.3948 16.2987 17.5923L14.5862 21.4348C14.5066 21.6136 14.4812 21.8118 14.5132 22.0049C14.5452 22.198 14.6332 22.3775 14.7662 22.5211L17.2337 25.0623C17.3406 25.1773 17.419 25.3159 17.4624 25.4668C17.5059 25.6177 17.5132 25.7768 17.4837 25.9311L17.0874 27.9861" stroke="#50AC5A" stroke-width="2" stroke-linecap="round" stroke-linejoin="round"/>
</g>
<defs>
<clipPath id="clip0_4275_342">
<rect width="32" height="32" fill="white" transform="translate(0.5)"/>
</clipPath>
</defs>
</svg>
