<svg width="70" height="69" viewBox="0 0 70 69" fill="none" xmlns="http://www.w3.org/2000/svg">
<path d="M36.4089 58.8809C38.8565 57.7719 39.9668 55.4663 40.4112 54.1695L41.4036 51.4829C42.5922 57.3046 45.2991 63.5244 50.3496 66.5199C51.2669 67.0824 51.7745 64.606 50.9731 64.0892C46.3637 61.3346 43.6938 55.5309 42.623 50.0901C42.681 50.113 42.7389 50.1359 42.7389 50.1359C44.0147 50.639 45.8953 53.8564 50.4781 53.7901C54.1699 53.7739 56.8493 50.5481 58.0503 43.5944C58.4665 41.3497 58.0618 37.1084 58.0618 37.1084C58.0618 37.1084 56.7566 39.7385 54.0367 41.8778C53.1494 42.5985 51.7315 43.6452 50.1026 44.2073C48.0345 44.8638 45.6605 44.5967 45.6446 43.7875C45.6251 42.3077 51.0353 41.1625 53.4688 39.5795C55.0836 38.5435 56.6595 36.7561 57.0072 34.6851C57.2635 32.8457 56.397 30.965 55.4848 29.2001C54.9118 28.1042 54.3388 27.0084 53.7079 25.8897C53.5444 25.6245 53.1244 24.9904 53.1244 24.9904C53.1244 24.9904 53.1193 26.1929 52.1601 28.625C50.082 33.8945 45.8529 37.3121 44.0308 38.5341C42.2088 39.756 41.0577 38.7668 42.3332 37.0616C43.5507 35.3336 45.6961 33.9716 47.446 32.2528C49.138 30.5112 49.723 29.5374 50.5698 27.7301C51.1653 26.5598 51.7449 24.5803 51.3898 23.102C50.7727 20.249 46.3213 16.7538 46.3213 16.7538C46.3213 16.7538 46.6061 18.0705 46.2653 19.2744C45.7999 20.9644 44.948 23.9742 43.2527 27.2535C41.6488 30.3012 39.6266 33.0501 38.465 32.2574C37.3034 31.4648 39.1324 29.3757 42.4563 23.3261C45.0352 18.6555 44.2565 15.8726 43.2424 14.5359C42.2283 13.1992 38.5906 10.3594 35.6788 9.07731C36.1111 9.85004 36.1604 10.4048 36.2448 11.0403C36.4031 12.5079 36.7655 15.3273 36.367 18.7166C35.9685 22.1058 34.9463 25.7175 33.8412 26.8207C32.736 27.9238 32.3283 27.4285 32.1138 26.2733C31.8413 25.0952 33.2466 21.7015 33.6453 20.5205C34.5113 17.9848 34.9537 14.1444 34.5475 11.7761C34.3558 10.563 33.955 9.20047 32.9445 8.53433C31.934 7.86819 30.3367 7.8405 28.9714 7.90428C28.0805 7.95443 27.0737 7.95884 25.6134 7.5837C26.9384 8.64156 27.8629 10.5452 28.6015 14.4497C29.0903 17.1183 28.66 18.889 27.7093 18.5811C26.7006 18.2502 26.7004 16.0419 26.6649 13.7529C26.6436 11.9379 25.4361 9.05279 24.4731 8.60611C23.5329 8.10152 21.9479 8.21251 20.0607 8.07047C18.1735 7.92844 17.2402 6.55671 17.2402 6.55671C17.2402 6.55671 16.9067 9.10169 16.6609 10.7445C16.5046 11.8204 15.1957 13.78 15.2591 14.8087C15.3225 15.8374 16.0818 17.1405 18.426 18.3327C20.3872 19.3068 21.178 20.0201 22.0848 20.7792C22.6313 21.2624 23.9459 22.5169 22.765 22.4527C21.3874 22.3778 19.3788 21.1842 18.0784 20.4037C15.8729 19.1994 13.7411 16.619 13.7411 16.619C13.7411 16.619 13.8484 17.1966 13.715 18.2146C13.5921 19.036 13.0266 21.4895 13.2182 22.7026C13.4099 23.9157 15.3993 25.8378 17.8103 26.5209C21.4618 27.6264 25.0572 29.0442 24.806 29.6812C24.474 30.3532 23.4936 30.9703 21.1283 30.1713C18.0443 29.1559 16.6507 28.2717 14.7914 26.8694C14.0709 26.3176 12.7336 25.121 12.7336 25.121C12.7336 25.121 12.6581 26.1619 12.7074 26.7166C12.7287 28.5317 12.7641 30.8207 13.9645 32.3647C15.0717 33.805 16.6146 34.4804 19.0817 34.8511C20.4137 35.0419 21.895 35.0238 23.6434 35.178C26.2599 35.34 27.5796 35.392 28.6937 35.9652C29.4599 36.4012 29.3881 38.1126 25.4519 37.8986C21.319 37.6739 18.2614 37.2711 16.3354 36.3777C14.7925 35.7023 13.6766 34.7939 13.6766 34.7939C13.6766 34.7939 14.575 38.2931 14.7156 38.6162C14.9388 39.2395 15.1392 39.9208 15.3625 40.5441C16.9603 44.9883 21.7591 44.2042 24.5898 43.3131C25.3524 43.0786 26.057 42.8211 26.7844 42.5058C28.1128 42.026 30.933 41.3315 31.1352 42.348C31.2795 43.3417 28.419 45.1578 25.9344 45.8508C23.311 46.556 19.9319 46.6286 17.2151 45.0218C17.5543 45.6909 18.1044 46.8447 18.4437 47.5137C18.9463 48.448 19.333 49.3366 20.1362 50.1886C20.8813 51.0178 21.8918 51.6839 22.8653 51.934C25.2639 52.4784 27.8381 51.2185 29.625 49.9158C31.5156 48.5202 34.8099 45.6038 35.5569 46.7683C36.3267 47.8748 31.9079 52.6228 29.2863 53.6632C26.6647 54.7037 25.0428 54.3986 23.4455 54.3709C24.5386 55.3373 25.6773 56.1879 26.8618 56.9226C30.0672 58.9896 33.9612 59.99 36.4089 58.8809Z" fill="#008935"/>
</svg>
