<svg width="33" height="32" viewBox="0 0 33 32" fill="none" xmlns="http://www.w3.org/2000/svg">
<g clip-path="url(#clip0_4275_1933)">
<path d="M17.4176 3.61252L20.3213 10.5325C20.3916 10.7005 20.5064 10.846 20.6533 10.9535C20.8002 11.061 20.9737 11.1264 21.1551 11.1425L28.5876 11.785C28.7848 11.8009 28.9728 11.8749 29.128 11.9976C29.2831 12.1204 29.3984 12.2864 29.4591 12.4747C29.5199 12.663 29.5234 12.8651 29.4693 13.0554C29.4152 13.2457 29.3058 13.4156 29.1551 13.5438L23.5163 18.4625C23.3793 18.5829 23.2774 18.7382 23.2215 18.9118C23.1656 19.0855 23.1577 19.271 23.1988 19.4488L24.8888 26.7663C24.9335 26.9574 24.9209 27.1574 24.8527 27.3415C24.7844 27.5255 24.6636 27.6854 24.5051 27.8012C24.3467 27.917 24.1576 27.9836 23.9616 27.9927C23.7655 28.0019 23.5711 27.9531 23.4026 27.8525L17.0151 23.9775C16.8599 23.8831 16.6817 23.8332 16.5001 23.8332C16.3184 23.8332 16.1403 23.8831 15.9851 23.9775L9.59756 27.8525C9.42902 27.9531 9.23461 28.0019 9.03856 27.9927C8.8425 27.9836 8.65346 27.917 8.49501 27.8012C8.33655 27.6854 8.21567 27.5255 8.14744 27.3415C8.07921 27.1574 8.06665 26.9574 8.11131 26.7663L9.80131 19.4488C9.84239 19.271 9.83456 19.0855 9.77866 18.9118C9.72275 18.7382 9.62086 18.5829 9.48381 18.4625L3.84506 13.5438C3.69431 13.4156 3.58495 13.2457 3.53083 13.0554C3.4767 12.8651 3.48024 12.663 3.54099 12.4747C3.60175 12.2864 3.71699 12.1204 3.87213 11.9976C4.02727 11.8749 4.21535 11.8009 4.41256 11.785L11.8451 11.1425C12.0264 11.1264 12.1999 11.061 12.3468 10.9535C12.4937 10.846 12.6085 10.7005 12.6788 10.5325L15.5826 3.61252C15.6601 3.43361 15.7883 3.28128 15.9513 3.17427C16.1143 3.06726 16.3051 3.01025 16.5001 3.01025C16.6951 3.01025 16.8858 3.06726 17.0488 3.17427C17.2118 3.28128 17.34 3.43361 17.4176 3.61252Z" stroke="#FEB924" stroke-width="2" stroke-linecap="round" stroke-linejoin="round"/>
</g>
<defs>
<clipPath id="clip0_4275_1933">
<rect width="32" height="32" fill="white" transform="translate(0.5)"/>
</clipPath>
</defs>
</svg>
